<svg width="1521" height="810" viewBox="0 0 1521 810" fill="none" xmlns="http://www.w3.org/2000/svg">
<path fill-rule="evenodd" clip-rule="evenodd" d="M447.672 724.489C450.287 724.489 452.902 724.489 455.517 723.966C456.563 723.966 457.609 723.966 459.178 723.443L461.27 722.92C461.27 722.397 461.793 722.397 461.793 722.397C463.885 723.966 465.454 725.012 467.545 726.581L472.775 731.288C470.16 735.472 468.591 736.518 465.977 739.655C462.839 738.609 459.701 734.949 456.563 732.334L450.287 727.104C449.764 726.581 449.241 726.058 449.241 726.058C448.195 725.012 448.718 726.058 447.672 724.489ZM351.967 720.828C365.041 720.828 395.897 733.38 408.449 741.747C417.862 748.023 416.816 749.069 422.569 753.776C403.219 754.822 363.472 729.719 351.967 720.828ZM455.517 695.202C458.655 696.771 478.005 711.414 480.62 714.029C479.574 719.782 476.959 724.489 474.867 728.673C472.775 728.15 460.747 719.259 459.701 717.69C455.517 712.46 454.471 702.524 455.517 695.202ZM327.909 703.57C356.15 701.478 376.547 706.185 402.173 719.259C408.972 722.397 442.442 742.793 447.149 750.638C442.965 753.253 435.121 754.299 429.368 754.299C424.138 754.299 419.431 745.931 407.403 738.609C399.558 733.903 391.713 729.719 381.777 726.058C358.242 717.69 351.967 721.874 338.892 712.46L328.955 705.139C327.909 704.093 328.432 704.616 327.909 703.57ZM322.68 706.185L318.496 704.093C319.542 704.093 320.065 703.57 320.588 704.616C322.157 705.662 321.634 705.139 322.68 706.185ZM457.609 692.064C473.298 687.88 482.712 693.633 481.143 711.414C480.097 710.368 459.701 696.248 458.132 693.633C458.132 693.11 457.609 692.064 457.609 692.064ZM926.2 689.972C943.459 690.495 943.982 689.972 961.24 685.788C967.516 691.541 971.177 697.817 978.498 703.57C996.803 718.736 1024.52 735.995 1047.53 740.701C1044.92 743.316 1033.41 746.454 1029.75 747.5C1020.34 750.638 1020.86 750.638 1011.45 747.5C981.113 737.041 966.47 727.627 943.459 708.8L931.43 696.771C929.861 694.156 927.246 692.587 926.2 689.972ZM854.552 669.576C868.672 672.714 890.638 690.495 899.528 700.432C905.281 707.231 916.787 722.397 923.585 727.627C933.522 735.995 941.367 742.27 953.395 749.069C958.625 751.684 965.424 754.299 970.654 756.914C937.183 762.144 884.362 738.609 864.488 710.368C855.075 697.817 852.46 687.88 854.552 669.576ZM322.68 706.185L348.829 724.489C357.719 730.242 366.61 735.995 376.024 741.747C394.851 752.207 422.046 763.713 447.149 755.868C480.62 744.885 496.832 702.001 477.482 689.449C472.775 686.834 464.408 685.265 458.132 687.357C443.488 692.587 454.471 716.121 454.994 719.782C441.396 717.69 422.569 700.432 430.414 683.173C441.396 658.593 495.264 661.208 507.292 707.754C513.568 731.288 499.447 753.253 484.281 763.713C448.718 787.77 407.403 778.356 374.978 753.253C361.38 742.793 358.242 739.132 348.306 730.242L331.047 714.029C328.955 711.937 324.249 708.8 322.68 706.185ZM964.378 685.265C973.792 679.513 975.884 681.082 987.389 671.145C989.481 669.053 991.05 666.961 993.665 664.869C994.711 665.915 1004.12 679.513 1009.88 685.788C1021.91 697.817 1039.16 709.323 1055.9 716.121C1065.84 720.305 1075.25 721.351 1085.19 725.012C1082.57 727.104 1056.42 739.132 1052.24 739.655C1042.3 741.224 998.895 717.167 988.435 708.8C981.113 703.57 975.361 698.34 969.608 692.064L964.378 685.265ZM298.099 684.219C306.99 680.036 339.415 682.65 350.398 684.742C366.087 686.834 380.731 691.541 394.851 697.294C407.926 702.524 401.127 702.001 408.449 710.891C411.586 715.075 418.908 719.259 426.23 721.874C447.149 728.15 435.121 716.644 463.362 741.224C461.27 743.316 458.655 745.408 454.994 747.5C448.195 751.684 449.764 748.023 429.368 733.38C418.385 725.535 404.265 716.644 390.144 711.414C374.978 705.139 358.765 700.955 339.938 700.955C319.019 700.432 331.57 706.185 306.99 690.495C303.852 688.403 300.191 686.834 298.099 684.219ZM586.785 675.852C598.291 673.237 607.705 663.3 610.842 662.777L616.595 694.679C612.934 693.11 605.09 688.403 601.429 685.788C598.291 684.219 588.877 678.467 586.785 675.852ZM266.721 671.145C281.887 665.915 300.191 662.777 317.45 662.777C340.461 662.777 363.995 668.007 384.914 675.852C390.667 678.467 398.512 682.65 403.742 684.219L402.173 697.817C388.575 693.11 384.914 689.972 366.61 685.265C346.737 680.559 324.249 678.467 303.329 681.082C297.054 681.605 295.485 683.173 289.732 680.559C286.071 678.467 282.41 677.421 278.749 675.852C276.657 674.806 274.565 674.283 272.996 673.76C271.95 673.237 270.904 673.237 269.858 672.714L266.721 671.145ZM867.626 644.473C874.948 646.042 899.528 665.915 904.758 671.668C908.419 675.852 911.557 678.99 915.741 682.65C912.08 692.064 918.879 685.265 924.108 691.541C945.028 716.121 968.562 733.38 999.418 745.408C1004.65 747.5 1010.4 749.069 1015.11 751.161C1007.79 753.776 996.803 755.345 988.435 756.391C976.407 757.437 973.269 756.391 963.855 751.684C948.166 743.839 935.614 735.472 924.631 726.058C912.603 715.075 905.281 702.001 894.821 692.064C886.454 684.742 870.241 671.145 855.598 666.961C857.167 658.593 862.92 649.18 867.626 644.473ZM995.234 662.254C997.849 658.593 1000.46 654.932 1003.08 650.226C1004.65 647.088 1008.31 638.72 1009.88 636.628C1014.58 640.812 1016.15 649.703 1037.6 665.392C1048.58 673.76 1061.13 679.513 1077.34 683.173C1115.52 691.018 1142.71 681.082 1175.14 671.668C1155.27 685.265 1119.18 708.277 1096.17 719.782C1089.37 722.92 1090.94 723.443 1082.57 721.874C1055.9 716.644 1028.18 701.478 1011.45 683.696C1007.79 680.036 997.326 667.484 995.234 662.254ZM230.112 662.254C247.893 650.749 299.145 642.381 323.203 641.858C349.352 641.335 370.271 647.088 393.282 657.024C399.558 659.639 406.88 664.346 412.632 666.438C410.54 671.668 406.88 675.329 405.311 682.127C401.127 681.082 381.777 672.191 366.61 667.484C351.967 663.3 335.754 660.685 320.065 660.685C303.852 660.685 287.64 662.777 272.996 666.961C260.445 670.622 264.629 670.622 251.554 667.484C244.755 665.392 236.911 664.346 230.112 662.254ZM565.343 661.731C576.849 657.024 590.969 649.703 599.337 640.812C601.952 638.197 607.182 632.967 608.75 631.398C609.273 639.766 609.273 647.088 609.796 655.455C610.319 661.208 608.75 660.685 605.613 663.3C599.86 667.484 596.199 669.576 589.4 672.714C584.17 675.329 584.17 675.329 579.987 672.191C576.849 670.099 566.912 663.823 565.343 661.731ZM429.368 655.978L427.799 656.501L429.368 655.978ZM869.718 641.858C875.471 635.059 881.747 630.875 888.546 626.691C901.62 618.847 901.097 621.462 911.034 628.783C917.31 633.49 939.798 656.501 943.982 664.869C941.89 670.099 927.769 681.605 919.402 683.696C908.942 671.145 887.5 652.841 873.379 644.473L869.718 641.858ZM192.98 650.226C194.549 648.657 196.641 648.134 199.256 647.088L218.606 639.766C282.41 617.801 337.846 614.663 400.604 640.812C405.834 642.904 421.523 649.703 425.184 652.841C423.092 654.932 421.523 656.501 419.954 658.593C417.339 660.685 416.293 662.777 414.201 664.346C405.834 662.254 392.759 651.795 364.518 644.473C322.68 634.013 270.904 642.381 231.681 658.593C224.359 661.731 226.974 661.731 218.083 660.162C201.348 657.547 206.055 654.409 192.98 650.226ZM1018.25 596.359C1019.81 598.973 1021.91 603.157 1023.47 606.295C1025.57 609.433 1027.66 613.094 1030.27 616.232C1061.13 655.978 1115.52 658.593 1161.54 644.996C1168.86 642.904 1169.91 646.565 1184.55 651.795C1186.65 652.318 1188.21 652.841 1190.83 653.364L1196.58 655.978C1186.12 665.392 1186.12 664.869 1172.52 670.099C1128.59 686.834 1074.2 692.064 1035.5 661.208C1028.18 655.455 1029.23 654.932 1025.04 651.795C1021.91 648.657 1019.29 644.996 1016.68 641.858C1005.17 626.691 1015.11 634.536 1018.25 596.359ZM945.551 662.254C940.321 657.547 920.447 629.306 904.235 620.939L908.419 619.37C919.402 617.278 930.384 621.462 937.706 629.306C944.505 636.628 951.303 649.703 945.551 662.254ZM164.216 640.812C172.584 634.536 185.135 628.26 195.072 623.031C257.83 590.606 323.203 576.485 391.19 603.157C407.926 609.433 442.442 626.691 454.994 637.151C450.287 639.766 442.965 641.335 438.259 644.473C426.23 650.749 429.368 652.318 423.092 649.18C346.737 608.91 277.703 613.094 198.733 644.996C187.75 649.18 192.457 649.18 181.475 645.519C176.768 644.473 168.4 642.381 164.216 640.812ZM1005.69 758.483C995.757 760.575 986.343 763.713 975.361 765.805C963.855 767.896 952.349 768.942 940.844 769.465C916.787 769.988 895.344 766.328 874.948 757.96C844.092 744.885 812.713 706.185 823.696 658.593C833.11 619.37 875.471 588.514 912.603 594.79C941.89 598.973 970.131 629.829 957.056 659.116C953.395 666.438 945.028 676.375 937.706 678.467C943.459 671.668 960.194 660.685 948.166 636.628C912.08 567.072 775.582 682.65 902.143 746.454C926.2 758.483 950.78 763.19 977.975 761.621C987.389 761.098 997.326 758.483 1005.69 758.483ZM538.671 641.858C542.855 639.243 553.314 635.582 558.544 632.967C564.82 630.352 571.619 626.691 577.372 623.554C588.354 617.801 600.906 605.249 611.365 600.542C610.842 606.295 609.796 612.048 609.796 617.801C608.75 630.352 608.228 628.783 600.383 636.105C594.107 642.381 594.63 642.904 585.216 649.18C561.682 664.346 562.205 660.162 549.131 650.226C545.47 647.611 541.286 644.996 538.671 641.858ZM112.441 619.37C111.395 620.939 106.165 626.691 102.504 625.645C90.4758 621.985 77.9242 613.094 70.0795 605.249C83.677 605.249 103.55 612.571 112.441 619.37ZM1339.88 598.973L1339.36 600.019L1339.88 598.973ZM1158.4 688.403C1145.33 700.432 1095.12 732.857 1080.48 741.224C1053.28 756.914 1024 773.126 988.958 780.971C961.763 787.247 894.821 793.523 869.718 784.109C790.748 753.253 749.433 632.444 839.908 587.468C871.287 572.301 913.126 561.319 945.551 577.531C959.671 584.853 972.223 595.836 977.975 611.525C983.728 628.783 983.205 652.318 973.269 665.915C969.608 670.622 961.763 676.898 956.01 680.559C948.166 685.265 938.229 686.834 927.769 685.265C998.372 660.162 949.211 571.778 878.609 596.359C854.029 604.726 832.064 625.645 824.219 650.226C809.052 694.156 831.541 738.609 871.287 758.483C883.839 764.759 898.482 768.419 914.172 770.511C947.12 774.172 981.113 768.419 1010.92 759.006C1017.72 756.914 1024 754.822 1030.27 752.207C1037.07 749.592 1044.39 747.5 1051.19 744.885C1085.71 731.811 1110.29 717.167 1141.15 698.863C1146.9 695.725 1152.65 691.541 1158.4 688.403ZM127.085 632.444C130.222 629.306 143.297 623.031 148.004 620.416C207.101 589.037 244.755 560.273 317.45 560.796C354.058 560.796 395.374 571.255 423.615 586.422C438.259 593.744 492.126 624.077 503.108 637.151C492.649 636.105 486.373 634.013 474.867 634.536C457.086 635.582 462.839 639.766 450.287 631.398C438.259 623.554 425.707 615.709 411.586 609.433C381.777 595.313 350.398 585.376 311.697 586.945C255.215 589.037 209.193 612.048 163.693 638.197C159.509 640.812 156.371 639.243 151.142 638.197C145.912 636.628 130.222 634.013 127.085 632.444ZM126.039 608.91C121.855 612.048 118.717 614.663 115.579 617.801C110.872 616.232 104.596 612.571 99.3665 609.956C93.6137 607.864 87.8609 605.772 81.5851 604.726C69.5565 602.111 68.5106 604.203 64.3267 597.927C62.2348 594.267 58.5739 587.468 58.0509 582.238C73.2174 581.715 87.8609 583.284 102.504 586.422C111.395 588.514 132.837 595.836 137.021 600.542C133.36 603.157 129.699 605.772 126.039 608.91ZM506.246 615.709C509.384 614.663 517.229 613.094 520.89 612.048C552.268 602.634 597.245 579.623 616.595 577.008C616.595 579.1 612.411 595.836 611.888 596.882C610.842 597.927 599.337 605.772 596.722 607.341C592.015 611.002 587.308 614.663 582.601 618.324C574.234 623.554 558.544 630.875 549.654 634.536C538.148 639.766 537.102 641.335 532.918 638.197C527.165 632.967 509.907 620.416 506.246 615.709ZM1367.07 568.641C1373.35 563.934 1386.42 557.135 1394.27 553.997L1401.59 577.008L1362.89 593.744C1364.98 584.33 1367.07 580.146 1367.07 568.641ZM867.103 785.155C858.736 786.201 833.11 779.402 824.219 777.31C817.42 775.218 810.621 773.649 803.823 771.557C795.455 768.942 793.363 765.805 788.656 761.098C773.49 743.839 758.323 722.92 752.047 693.11C742.111 647.611 758.846 597.404 789.702 566.549C792.317 564.457 793.886 562.365 796.501 560.273C801.208 556.612 805.915 552.428 812.19 548.767C891.683 501.176 1013.54 535.17 1007.26 625.123C1006.22 637.674 996.803 653.364 991.05 660.685C984.774 668.53 972.746 678.467 959.148 681.605C966.993 674.806 973.269 672.191 978.498 661.731C983.205 652.318 984.774 639.243 983.205 627.737C981.113 602.111 968.039 588.514 952.872 579.1C915.741 556.612 860.305 571.255 828.926 591.129C796.501 611.002 775.582 649.18 792.317 702.524C800.685 730.765 818.466 753.776 842 771.557C845.661 773.649 862.92 784.632 867.103 785.155ZM1054.85 563.934C1066.36 560.796 1074.73 556.089 1089.37 559.227C1096.69 560.796 1098.26 560.796 1100.35 568.118C1101.92 573.87 1104.54 578.577 1106.11 583.807C1090.42 582.761 1077.86 577.531 1065.31 570.732L1054.85 563.934ZM140.159 568.641C157.417 562.888 160.555 558.181 170.492 546.675C177.814 550.336 194.026 559.75 197.687 564.98C191.934 568.118 186.181 570.732 180.429 573.87C175.199 576.485 167.877 581.715 163.17 583.284L140.682 569.163C140.682 568.641 140.682 568.641 140.159 568.641ZM140.682 563.411L139.113 564.457L140.682 563.411ZM1351.38 582.238C1355.05 569.686 1357.66 563.411 1358.18 548.244C1359.75 550.336 1360.8 553.997 1361.32 557.135C1362.89 563.934 1355.05 577.531 1351.38 582.238ZM110.349 627.214L138.59 605.249C166.831 585.376 203.44 564.98 236.388 552.428C291.301 531.509 349.875 527.325 404.265 550.859C438.259 564.98 468.068 589.037 494.218 612.048C581.032 688.926 674.123 735.472 788.656 771.557C846.184 789.339 901.097 798.752 965.947 789.862C1031.84 780.448 1088.32 743.839 1137.48 709.323C1146.9 702.524 1156.84 695.725 1166.25 687.88L1193.97 665.392C1202.86 658.07 1198.67 655.978 1208.61 658.07C1216.46 659.639 1223.78 660.162 1231.62 661.208L1142.71 718.736C1089.37 752.73 1043.87 784.632 973.269 797.183C867.626 816.011 726.944 779.925 646.405 737.564C623.394 726.058 604.567 712.983 585.739 698.863L558.021 677.421C552.268 671.668 550.177 663.823 533.964 651.795C521.413 642.381 516.183 643.95 502.585 633.49C493.695 626.691 483.758 619.893 473.821 613.094C456.04 600.542 433.552 586.945 410.018 577.531C345.168 551.382 271.95 550.859 208.67 584.853C197.687 590.606 187.227 596.359 176.245 602.634C160.032 612.048 144.343 619.37 128.653 628.26C121.855 632.444 123.424 631.921 114.533 629.829C114.533 629.306 112.441 628.783 112.441 628.783C110.349 627.737 111.395 628.26 110.349 627.214ZM57.528 579.623C54.3901 568.118 58.5739 562.365 60.6659 552.951C67.4646 552.951 85.769 553.474 90.9988 556.089C86.8149 557.135 88.9069 554.52 83.677 556.089C83.677 560.273 86.8149 560.796 90.4758 562.888C100.412 568.641 111.918 571.255 123.424 571.255C135.975 571.255 133.883 567.595 144.866 574.393C150.619 578.054 156.894 580.669 160.555 585.376C156.894 586.945 141.728 597.927 140.159 598.45C138.067 598.973 131.791 594.79 129.176 593.221C101.981 580.669 86.292 582.238 57.528 579.623ZM1015.11 551.905C1037.07 584.33 1068.97 618.847 1112.9 618.847C1118.13 618.847 1122.84 617.278 1127.03 617.278C1130.16 616.755 1130.69 618.847 1135.39 623.031C1144.28 631.921 1151.61 635.582 1162.59 641.858C1155.27 647.611 1118.66 650.226 1107.15 649.703C1072.11 648.657 1042.83 635.059 1025.57 605.249C1019.29 594.79 1018.77 594.267 1018.25 580.146C1018.25 570.732 1016.68 560.796 1015.11 551.905ZM1361.84 543.537C1364.98 541.968 1369.17 537.785 1373.87 535.17C1377.53 532.555 1381.72 529.94 1386.42 528.371L1393.22 551.382L1367.07 565.503C1366.55 561.319 1366.03 557.658 1364.98 553.474C1363.94 549.813 1362.37 547.198 1361.84 543.537ZM62.7578 550.859C64.8497 543.537 75.3093 532.555 83.677 529.94C100.412 525.233 99.8895 543.014 94.1367 553.474C92.0447 553.474 71.6485 550.859 62.7578 550.859ZM1029.75 544.583C1036.55 539.877 1051.72 535.693 1061.65 534.647C1076.82 533.078 1083.62 535.693 1094.6 540.4L1097.74 559.227C1081.53 555.043 1073.68 554.52 1057.47 560.796C1050.15 563.411 1053.28 563.934 1042.3 555.566C1040.21 553.997 1038.12 552.428 1035.5 550.336C1032.89 548.244 1030.8 547.198 1029.75 544.583ZM464.408 581.192C482.189 581.192 495.786 582.761 513.568 580.146C555.406 573.87 590.969 554.52 630.716 543.537C629.67 546.675 625.486 553.997 623.917 558.181C613.98 580.669 625.486 570.732 596.199 580.669C588.877 582.761 582.078 585.376 575.803 588.514C568.481 591.652 510.953 616.755 502.585 613.094L479.574 593.744C474.344 589.56 469.114 585.899 464.408 581.192ZM172.061 544.583C178.86 524.187 176.768 538.831 179.383 513.727C192.98 518.957 225.928 538.831 232.204 548.767L200.302 563.411C194.549 560.273 183.044 549.29 172.061 544.583ZM1125.98 614.663C1115.52 619.893 1091.99 614.14 1082.05 610.479C1052.76 598.973 1013.54 557.658 1008.31 530.986L1023.47 545.629C1025.57 547.198 1026.61 548.767 1028.7 550.336C1047.01 564.98 1065.84 580.146 1090.94 585.899C1110.29 590.606 1105.06 582.761 1112.38 595.313C1117.09 603.157 1124.41 612.048 1125.98 614.663ZM1389.56 525.233H1390.08H1389.56ZM791.794 767.896C781.857 765.805 765.645 759.529 755.185 755.868C750.478 754.299 741.065 752.207 737.927 749.069C735.312 745.931 731.651 738.609 729.036 734.426C688.767 661.731 728.513 574.393 784.472 533.601C860.305 477.119 974.315 492.285 1009.88 578.577C1013.54 586.945 1014.58 588.514 1013.54 598.45C1013.02 605.249 1012.49 613.617 1009.88 618.847C1009.35 604.726 1008.31 596.882 1003.08 584.853C998.372 573.347 989.481 561.842 981.113 555.043C924.108 505.36 808.006 517.388 767.214 592.698C738.973 644.996 738.973 698.34 774.013 746.454C782.903 759.006 784.472 758.483 791.794 767.896ZM197.687 657.547C188.796 657.547 180.429 656.501 171.538 656.501C162.124 656.501 153.234 657.547 143.82 656.501C103.55 651.795 53.3441 638.72 40.7926 596.359C25.1031 543.537 77.4013 493.331 108.257 525.233C119.763 536.739 112.964 552.951 97.2746 556.089C114.01 518.957 80.0162 517.388 63.2808 540.922C39.2236 574.393 56.482 609.956 92.5677 626.168C121.332 639.243 152.188 640.289 181.475 650.226L195.595 655.978C197.687 657.547 196.641 656.501 197.687 657.547ZM1008.31 523.664C1029.75 513.727 1058.51 501.176 1085.19 514.773C1097.22 521.049 1094.08 522.095 1094.6 537.262C1088.32 535.17 1085.19 533.601 1077.86 532.555C1053.81 528.894 1040.21 538.831 1027.14 543.014C1022.43 537.785 1011.45 529.417 1008.31 523.664ZM1289.67 544.583C1297.52 532.032 1356.61 494.9 1368.64 501.176C1372.83 503.791 1383.29 518.957 1384.86 525.756C1381.19 528.894 1375.96 530.986 1371.78 533.601C1367.6 536.216 1363.94 539.877 1360.27 541.968C1355.57 535.693 1355.57 534.124 1349.29 529.94C1346.15 527.325 1337.79 521.572 1333.6 523.664C1331.51 528.894 1336.22 524.187 1334.65 530.986C1334.13 536.216 1324.71 549.813 1321.57 552.428C1311.11 561.319 1294.9 549.29 1289.67 544.583ZM135.975 657.547L139.113 658.07C138.067 659.116 139.636 658.593 136.498 659.116C128.653 659.639 115.056 663.3 107.734 665.915C96.7516 669.576 97.2746 669.576 80.0162 663.3C-6.79876 630.875 -7.32174 530.986 62.7578 496.992C133.36 462.475 161.078 547.721 120.809 564.98C110.872 569.163 101.981 562.888 93.6137 560.273C96.7516 557.658 98.8435 558.704 103.55 556.612C106.688 555.043 108.257 552.951 110.349 551.382C126.562 535.17 107.734 513.727 86.292 513.204C41.8385 512.682 11.5056 592.698 63.8037 631.921C79.4932 643.95 110.349 656.501 135.975 657.547ZM734.789 748.546C727.99 746.977 709.163 738.609 701.318 735.472C695.565 733.38 695.042 734.426 692.951 728.673C679.876 691.018 681.445 631.921 697.134 597.404C713.347 560.796 746.818 528.894 783.426 514.25C799.639 507.452 834.679 498.561 854.552 500.653C846.184 500.653 823.173 509.021 815.328 512.682C780.288 528.894 753.616 552.428 733.743 587.468C706.548 635.582 700.795 691.018 729.559 739.655C731.128 742.793 733.22 745.408 734.789 748.546ZM1288.1 541.968C1275.03 521.572 1287.58 501.176 1304.32 493.854C1323.14 485.486 1354.52 487.055 1364.98 498.038C1356.09 501.176 1350.34 502.222 1341.97 505.883C1320.53 514.773 1312.16 523.141 1295.95 535.693C1292.81 537.785 1291.24 540.922 1288.1 541.968ZM691.382 731.288C688.244 730.242 658.957 717.167 657.388 716.121C653.204 711.414 650.589 681.605 650.066 673.76C649.543 645.519 655.296 613.094 664.187 589.037C682.491 540.922 715.439 505.36 757.8 484.963C803.3 462.475 871.287 456.2 924.108 472.412C941.89 478.165 960.194 486.009 974.315 497.515C983.728 504.837 980.59 503.268 986.866 509.021C1004.65 525.233 1014.58 555.043 1014.06 580.669L1011.45 576.485C990.004 527.325 944.505 500.13 889.592 498.038C851.937 496.469 815.851 498.561 781.334 512.682C744.726 527.848 713.87 558.704 697.134 592.175C678.83 629.829 677.261 690.495 691.382 731.288ZM984.774 492.808C1018.77 487.055 1046.49 469.797 1074.2 475.55C1081 476.596 1095.65 481.303 1099.83 485.486C1098.26 496.469 1095.12 504.837 1094.6 517.388C1090.94 516.865 1078.91 503.791 1049.1 507.452C1025.57 510.59 1019.81 517.388 1006.74 521.572C999.418 515.296 995.757 507.452 990.004 499.607C988.435 497.515 985.82 494.9 984.774 492.808ZM178.86 510.59C177.291 491.239 169.446 475.55 160.555 465.613C178.337 468.751 217.037 492.285 229.589 504.837C238.48 513.204 256.784 529.417 261.491 539.354L235.342 547.721C226.974 540.922 219.652 533.601 209.193 526.802C199.779 521.049 189.842 515.819 178.86 510.59ZM653.727 714.029C650.589 712.983 623.917 699.909 622.348 697.294C619.733 693.11 615.026 664.346 614.503 657.547C606.136 573.87 642.221 507.452 714.916 469.274C804.869 422.206 931.43 416.453 991.573 510.067L981.113 500.13C968.039 489.67 960.194 483.918 943.459 477.119C881.224 450.97 796.501 457.768 742.634 490.193C667.847 535.693 634.377 626.168 653.727 714.029ZM966.47 473.981C968.039 472.935 980.067 469.274 983.205 467.705C998.895 461.429 1015.11 452.016 1032.37 447.309C1052.76 441.556 1073.68 443.648 1093.55 450.447C1099.31 452.539 1105.06 455.154 1109.77 456.722C1108.72 460.906 1106.11 466.136 1104.54 469.797C1103.49 473.981 1101.92 478.688 1100.35 482.872C1080.48 472.412 1065.84 468.751 1040.73 475.027C1024 479.211 999.418 490.193 981.636 490.716C977.975 483.395 971.177 480.257 966.47 473.981ZM293.916 475.027L276.134 452.539C281.887 453.585 286.594 455.154 290.255 458.291C292.87 460.383 292.87 461.429 292.87 466.136C293.393 468.751 293.916 471.889 293.916 475.027ZM940.321 455.154C945.028 452.539 956.01 449.401 961.763 447.309C1002.03 430.573 1026.61 411.746 1077.86 418.545C1092.51 420.637 1112.38 425.867 1121.8 433.188C1120.23 438.941 1113.43 447.309 1111.34 454.631C1107.67 454.108 1104.01 452.016 1100.35 450.447C1071.07 439.464 1046.49 438.418 1017.2 449.924C1005.69 454.631 976.407 469.797 966.47 471.366C961.763 471.889 960.194 469.274 957.056 466.659C951.826 462.475 946.074 459.337 940.321 455.154ZM292.347 456.722C275.611 445.74 277.18 454.631 269.335 445.74C263.583 439.464 257.83 435.28 253.123 430.05L258.353 429.004C270.904 428.481 290.255 435.803 292.347 440.51V456.722ZM935.614 414.361H952.872C950.78 416.453 935.091 426.913 931.43 428.481L935.614 414.361ZM913.126 442.602C916.264 439.987 922.539 438.418 926.723 436.326C956.01 421.16 977.452 398.149 1014.06 387.689C1045.96 378.275 1082.05 384.551 1111.86 398.149C1121.27 402.332 1129.12 407.562 1136.44 412.269C1135.39 414.361 1125.46 428.481 1123.36 431.096C1102.97 423.252 1100.35 418.022 1070.02 415.407C1022.95 412.269 1000.46 428.481 962.286 444.694C934.045 456.2 939.798 454.108 925.154 447.309C921.493 445.74 916.787 444.171 913.126 442.602ZM220.175 407.039C231.158 401.286 263.06 399.718 279.272 403.378C286.594 405.47 289.732 407.562 296.008 409.654L292.87 437.372C290.255 436.849 287.64 434.234 285.025 432.665C264.629 422.206 253.646 430.573 246.847 425.344C234.819 415.93 232.204 415.407 220.175 407.039ZM937.706 391.873C947.12 391.35 975.884 392.396 982.682 396.057C975.884 399.718 969.085 403.901 963.332 408.085C958.625 410.7 958.102 412.269 951.303 411.746C946.074 411.746 941.367 412.269 936.137 411.746L937.706 391.873ZM524.027 407.039C506.769 407.562 485.85 395.011 480.097 385.074C497.355 387.689 514.091 399.195 524.027 407.039ZM174.153 387.689C179.383 386.12 185.135 385.597 190.888 384.551C206.055 380.89 222.267 376.183 237.434 373.568C259.922 370.431 285.025 373.568 303.329 381.413L296.531 407.562C285.025 403.378 283.456 400.24 265.675 399.195C239.526 397.626 220.175 406.516 214.422 403.901C206.055 400.763 184.612 388.735 174.153 387.689ZM980.59 392.919C967.516 390.304 951.303 388.735 937.706 389.258L934.568 370.431C964.378 367.816 988.958 372.522 1014.58 381.413C1010.92 384.551 1003.6 386.12 998.372 388.735C990.004 391.873 990.004 394.488 980.59 392.919ZM551.746 402.855L552.791 404.424C547.562 406.516 531.872 409.131 527.165 406.516C524.55 404.947 521.413 401.809 518.275 399.718C484.804 376.706 476.959 391.35 473.298 369.908C493.172 366.247 506.769 367.816 520.89 377.752L532.918 387.689C543.901 398.149 544.424 397.103 551.746 402.855ZM552.791 370.954C554.36 369.908 553.314 370.431 555.406 369.385C567.435 364.678 570.573 361.54 573.188 360.494C577.372 364.678 581.032 369.385 586.262 373.045C595.153 379.844 597.245 379.844 600.383 381.936C601.429 382.982 600.906 382.459 601.952 383.505C582.601 390.827 584.693 397.103 574.234 389.781C565.343 384.028 559.59 377.752 552.791 370.954ZM973.792 366.247C979.021 357.879 992.096 347.942 1004.12 352.126C1014.58 355.787 1024 365.724 1018.77 378.275C1011.97 376.706 1004.12 373.045 996.28 371.477C992.619 370.431 975.361 367.293 973.792 366.247ZM934.568 365.724C942.936 362.586 950.78 360.494 960.194 360.494L965.424 365.201L934.568 365.724ZM472.775 367.293C470.683 350.034 472.775 351.08 480.097 348.465C486.896 345.327 494.741 344.281 503.108 345.327C515.137 346.896 533.441 355.264 538.671 362.063C536.056 363.632 532.918 364.155 532.395 367.816C535.533 371.999 542.332 370.954 548.085 371.477C552.268 371.477 554.36 376.183 557.498 379.321C565.343 387.689 572.142 390.304 577.895 395.011C574.234 397.103 567.958 399.195 564.297 400.763C556.975 403.378 556.975 403.901 551.223 400.24L535.533 386.643C533.441 385.074 532.395 384.028 530.303 382.459C508.338 362.586 496.832 365.724 472.775 367.293ZM575.28 358.925C576.849 356.31 576.849 356.31 578.941 354.741C583.124 350.034 584.17 343.758 586.785 341.144L597.245 354.741L618.687 374.091C605.613 379.321 608.228 385.074 594.107 376.183C587.831 371.999 578.418 363.632 575.28 358.925ZM1362.37 566.549C1364.98 584.853 1353.48 606.295 1345.63 615.709C1335.69 627.214 1325.76 635.582 1307.98 643.95C1276.6 659.116 1230.05 660.162 1194.49 650.226C1118.13 628.783 1084.66 561.842 1104.01 487.055C1112.9 451.493 1142.19 403.378 1168.34 386.12C1188.74 372.522 1209.13 361.54 1233.19 352.649C1288.63 332.253 1345.63 334.868 1400.54 356.833C1411 360.494 1437.68 373.568 1443.95 378.798C1437.68 377.752 1428.79 373.568 1421.46 371.477C1397.41 363.632 1374.4 359.448 1348.25 356.31C1299.61 350.034 1245.22 362.063 1204.95 386.643C1178.28 402.332 1161.54 420.637 1147.42 447.309C1123.89 491.762 1121.8 546.675 1148.99 586.422C1162.59 606.818 1186.12 627.214 1215.41 637.674C1284.97 663.3 1332.03 628.26 1362.37 566.549ZM175.199 382.982C134.929 388.735 105.642 363.109 116.625 341.144C120.809 345.85 123.947 351.08 127.607 355.264C134.929 362.586 147.481 371.477 157.417 376.183C162.647 378.275 169.969 380.367 175.199 382.982ZM982.159 351.08C981.113 353.695 984.774 351.603 979.544 353.695L982.159 351.08ZM982.159 351.08L985.82 347.942C990.527 344.804 995.234 342.19 1000.99 341.144C1025.04 336.96 1056.95 351.08 1039.69 378.798L1022.43 380.89C1025.04 374.614 1027.14 371.477 1023.47 363.632C1019.29 354.218 1008.83 346.896 998.372 346.896C990.004 346.373 987.389 350.034 982.159 351.08ZM473.821 348.465C474.867 342.19 480.62 329.638 483.758 326.5C487.419 322.839 504.154 321.27 510.43 321.27C536.056 321.27 541.809 331.207 554.36 340.098C554.36 348.988 545.993 356.833 541.286 359.971L527.688 351.08C504.677 339.052 494.218 341.667 473.821 348.465ZM773.49 355.787C795.455 353.695 813.236 358.925 834.679 351.603C855.075 344.804 862.397 334.345 862.397 314.472C870.764 330.161 867.103 346.896 858.736 360.494C855.075 366.247 849.845 372.522 845.661 376.183C841.477 379.321 833.633 386.643 828.926 388.735C821.081 381.936 813.759 375.66 803.3 369.385C787.087 359.971 781.857 359.971 773.49 355.787ZM320.588 343.236C318.496 348.465 314.835 354.218 312.22 359.971C309.605 365.201 307.513 371.999 304.898 376.706L287.64 370.954C293.393 367.293 316.404 346.896 319.542 342.713C320.588 340.098 320.065 340.621 323.203 339.575C321.634 342.713 323.203 341.144 320.588 343.236ZM182.521 354.741C206.055 347.942 202.394 346.373 211.808 340.098C214.422 339.052 226.451 339.575 233.773 339.575C231.158 343.236 217.56 358.925 214.945 361.017C210.762 363.632 186.704 357.356 182.521 354.741ZM135.975 359.448C132.837 356.833 118.194 342.713 119.24 339.052C122.901 337.483 124.993 342.19 128.13 344.281C142.774 356.31 159.509 356.31 175.722 355.787L210.762 364.678C205.532 369.908 196.641 375.137 188.273 379.844C174.676 386.643 145.912 367.293 135.975 359.448ZM973.269 358.402C973.792 345.85 987.389 334.868 995.234 330.684C1028.7 312.38 1077.86 323.362 1073.68 361.017C1072.64 369.908 1069.5 373.568 1067.93 379.844L1042.3 378.798C1045.96 369.385 1050.15 363.632 1043.35 352.649C1039.16 346.373 1031.32 341.667 1021.91 339.575C998.895 334.345 981.113 344.804 973.269 358.402ZM912.603 335.914C922.539 333.822 931.43 330.161 942.413 331.73C945.028 335.391 947.12 341.667 949.734 345.85C951.303 348.988 957.056 356.833 957.056 358.402C945.551 359.448 941.367 361.54 931.953 364.155C930.384 362.063 927.246 355.264 923.062 349.511L912.603 335.914ZM127.607 378.798C116.102 378.275 99.3665 362.063 94.6597 348.465C91.5218 339.052 93.0907 330.161 98.8435 323.885C116.625 304.012 141.205 314.472 133.36 329.115C126.562 343.236 123.947 328.069 114.533 336.96C108.78 342.19 109.303 354.741 112.964 362.063C116.625 371.477 121.855 373.568 127.607 378.798ZM893.775 325.977C901.097 330.684 912.08 341.667 917.31 348.988C935.614 373.045 937.706 401.286 926.2 429.527C924.631 433.188 924.108 432.665 919.925 434.757C915.741 436.326 907.373 440.51 902.143 438.941C911.034 420.637 918.879 404.424 916.787 379.321C915.218 356.31 904.758 339.575 893.775 327.546C892.206 326.5 893.252 328.069 891.683 325.977C890.638 324.931 890.638 324.408 890.638 323.885L893.775 325.977ZM827.357 335.914C835.724 331.73 849.322 323.362 858.213 320.224C856.121 348.465 820.558 352.649 794.932 350.557L827.357 335.914ZM972.223 352.649C966.993 299.828 1006.74 276.817 1053.81 291.983C1073.16 298.259 1088.32 310.288 1096.69 324.408C1110.29 348.465 1097.74 370.431 1093.55 385.597L1070.02 380.367C1072.11 373.568 1074.73 369.908 1075.77 361.017C1081.53 306.627 987.912 307.673 972.223 352.649ZM487.942 321.793C489.511 318.655 497.878 312.38 503.631 310.288C529.257 299.828 552.791 324.408 554.36 336.96C551.746 335.391 550.7 333.822 548.085 331.73C526.642 316.04 512.522 318.132 487.942 321.793ZM216.514 336.96C218.083 333.299 218.083 334.868 220.698 331.73C223.836 328.592 229.589 320.224 231.158 316.04L249.462 316.563C247.893 320.747 243.186 326.5 240.572 330.684C234.296 339.575 232.204 338.006 216.514 336.96ZM879.132 311.334C889.592 306.627 922.016 298.259 934.045 300.351C935.614 304.535 936.137 311.334 937.183 316.04C938.752 320.747 940.321 324.931 941.367 329.638C926.2 329.115 923.062 332.253 910.511 334.345C896.913 320.747 882.27 313.949 879.132 311.334ZM866.58 432.142C870.241 423.252 874.948 414.884 878.609 404.947C886.977 383.505 891.161 357.879 883.316 335.391C880.701 327.546 874.425 316.04 868.672 311.334C885.931 317.609 905.281 340.621 911.557 362.063C919.402 390.827 912.08 416.453 900.051 437.895L866.58 432.142ZM830.495 390.827C836.77 385.597 843.046 381.413 848.276 376.706C852.983 372.522 858.213 365.724 862.397 358.925C866.057 352.126 869.195 343.758 869.195 334.345C869.718 322.839 866.057 318.132 862.92 309.242C868.672 312.903 877.04 324.408 880.701 333.822C889.592 356.833 884.885 381.936 876.517 404.424C874.425 410.177 867.103 429.004 862.92 432.142C858.736 431.619 859.259 431.096 857.167 427.436L847.23 410.177C842 403.901 835.724 395.011 830.495 390.827ZM62.7578 380.89C60.1429 377.229 58.0509 375.137 55.436 370.431C49.1603 358.402 46.5454 342.19 50.2062 328.592C54.9131 311.857 67.9876 298.259 80.0162 290.937C117.671 267.403 153.757 297.736 143.297 324.408C141.205 329.638 139.636 330.161 136.498 333.299C138.59 327.546 141.728 323.362 137.544 317.086C122.901 294.598 74.2634 319.701 93.0907 355.787C98.3205 365.724 105.119 371.999 113.487 377.752C106.688 378.798 94.6597 378.275 87.3379 378.798C80.0162 379.321 69.0336 380.89 62.7578 380.89ZM854.552 431.619C841.477 432.665 838.339 432.665 832.587 427.436C795.978 395.534 744.726 380.367 695.042 384.551C610.319 391.873 553.314 453.585 492.126 439.464C450.81 429.527 423.092 390.827 439.304 346.896C446.103 329.115 458.132 311.857 473.298 302.443C513.568 277.34 555.929 302.966 556.452 328.592C554.36 321.27 539.717 310.288 531.872 306.627C496.832 290.414 458.132 336.437 469.637 374.614C473.298 387.166 481.143 395.011 490.557 400.763C500.493 406.516 512.522 411.223 526.119 411.746C572.665 414.361 611.888 375.137 661.572 360.494C688.244 352.649 716.485 349.511 745.249 353.695C791.794 360.494 836.247 389.781 854.552 431.619ZM1248.36 343.236C1247.83 317.609 1249.93 330.684 1246.79 299.305C1251.49 302.443 1259.86 314.472 1284.97 327.023L1299.61 334.345C1290.72 335.391 1281.83 335.914 1272.94 337.483C1264.05 339.052 1256.2 341.667 1248.36 343.236ZM651.635 358.925C648.497 361.017 641.175 363.109 637.514 364.678C625.486 370.431 622.871 374.091 618.164 370.431L602.475 356.833C596.199 350.034 594.63 348.465 589.4 340.621C587.831 338.006 587.831 336.96 588.354 333.299C592.015 314.472 587.831 309.765 586.262 299.305C592.015 305.058 594.63 306.627 601.429 314.995C626.532 343.758 611.888 333.822 651.635 358.925ZM233.25 313.949C233.773 310.811 237.957 296.69 239.526 294.598C243.709 294.598 247.893 295.121 252.6 295.121C256.261 295.121 260.445 294.598 264.106 295.121C262.014 297.736 256.784 306.104 254.169 310.288C251.554 314.472 251.554 313.949 245.278 314.472C241.094 314.472 237.434 314.472 233.25 313.949ZM296.531 447.309C296.531 401.809 315.358 352.649 342.03 319.701C349.875 310.288 361.38 297.736 371.317 291.46C353.536 309.765 344.645 324.408 334.185 349.511C314.312 397.103 307.513 441.033 327.909 489.67C332.093 501.176 339.938 513.727 347.26 523.141C348.306 524.71 349.875 526.802 350.921 527.848C353.013 530.463 353.536 529.94 354.581 532.555C340.984 531.509 331.57 530.463 317.973 530.463C303.852 507.452 296.531 479.734 296.531 447.309ZM833.633 432.142C824.219 432.665 813.759 433.188 804.346 435.28C795.978 436.326 798.593 435.803 792.84 432.142C777.674 422.206 746.818 416.976 727.99 415.93C689.29 413.838 654.773 427.436 624.44 441.033C578.941 460.906 523.505 488.101 469.637 470.32C421 454.108 391.19 396.58 404.788 347.419C410.54 325.977 427.799 301.397 445.58 290.414C484.281 265.834 534.487 262.696 566.389 290.937C581.032 303.489 583.124 320.747 575.28 338.006C572.142 345.327 566.912 353.695 562.728 358.402C556.975 364.678 551.746 368.862 540.24 366.77C550.7 358.925 561.159 351.603 559.59 331.207C555.929 295.121 510.43 277.863 472.775 299.828C456.563 309.242 444.534 328.069 437.213 346.373C419.954 391.35 450.287 434.757 496.309 442.602C550.7 451.493 603.521 405.47 664.187 391.873C710.732 380.89 760.938 386.12 801.731 409.131C810.621 413.838 829.972 425.867 833.633 432.142ZM1275.03 285.708C1287.58 274.725 1317.39 283.093 1333.08 291.983C1335.69 293.029 1338.31 295.121 1340.92 296.69L1346.68 300.351C1347.2 301.397 1347.2 300.874 1347.72 301.92C1329.94 314.472 1286.53 297.213 1275.03 285.708ZM1269.8 288.322L1266.14 285.708L1268.23 286.754C1270.32 288.322 1268.23 286.231 1269.8 288.322ZM970.131 363.109C964.378 359.971 958.625 352.126 954.441 345.85C949.734 337.483 946.597 333.299 947.12 321.27C947.643 301.92 956.01 285.708 965.947 275.771C986.343 255.898 1029.75 245.438 1066.36 253.283C1099.83 260.081 1125.46 283.616 1133.3 314.472C1139.05 336.96 1133.82 376.183 1117.09 390.827C1112.38 395.011 1112.9 393.442 1106.63 390.827C1102.97 389.258 1098.26 388.212 1095.65 386.12C1104.01 363.632 1110.81 345.327 1097.74 321.793C1089.89 308.196 1071.07 294.075 1050.67 288.845C1024.52 281.524 1003.6 285.708 986.866 299.305C968.562 313.426 969.085 341.667 970.131 363.109ZM38.1777 385.074C31.3789 376.706 25.1031 357.879 22.4882 344.804C19.8733 328.069 21.9652 310.811 27.718 296.167C51.7752 238.639 142.774 234.455 168.923 280.478C183.044 305.058 169.969 342.19 130.222 339.575C132.314 336.96 143.297 335.914 146.958 319.701C149.05 308.719 143.82 298.782 138.59 293.552C134.929 289.891 132.837 287.799 128.13 285.185C123.424 283.093 119.24 281.524 114.01 280.478C85.246 276.294 57.005 301.397 49.1603 324.931C46.0224 334.868 46.0224 346.373 48.1143 356.833C52.2982 373.045 55.959 374.091 60.1429 381.413L38.1777 385.074ZM741.588 334.345C743.68 333.299 745.772 332.776 748.387 332.776C781.857 327.023 811.667 319.178 842 304.535C849.322 301.397 856.121 297.213 863.442 293.552C882.27 284.139 916.264 272.633 937.706 271.064C935.614 281.001 934.568 286.754 934.045 297.736C918.879 298.259 905.281 300.874 891.683 304.535C885.408 306.104 878.609 310.811 872.856 308.196C863.442 303.489 854.552 297.736 855.598 305.581C856.121 308.196 857.69 309.242 858.213 317.609C840.431 326.5 822.65 336.96 803.3 344.804C788.133 350.557 787.087 351.08 770.352 346.373C753.093 341.144 753.093 339.052 741.588 334.345ZM680.922 271.064C718.054 272.633 731.651 260.604 767.737 276.294L765.645 278.386C754.662 284.139 733.22 288.322 721.715 288.322C712.301 288.322 704.456 286.754 696.088 284.139C688.767 282.57 686.152 278.386 680.922 271.064ZM240.572 274.725C257.83 274.725 264.106 275.248 280.841 271.587C279.272 275.248 276.657 277.863 274.042 281.001C271.95 284.139 269.858 287.276 267.767 290.414C265.675 292.506 265.675 292.506 262.014 292.506C253.646 293.552 247.893 293.029 239.526 291.983L240.572 274.725ZM794.932 436.849C776.628 439.464 745.772 451.493 740.542 451.493C609.796 454.108 546.516 568.641 420.477 488.624C370.271 456.2 361.38 396.057 381.777 340.098C394.328 305.058 415.77 283.616 449.241 269.495C479.574 256.944 504.677 253.283 537.625 258.513C550.7 260.604 552.791 263.219 560.636 270.018C580.509 286.231 592.538 317.086 580.509 344.281C577.372 350.557 570.05 358.925 563.774 361.017C567.435 357.356 572.665 348.465 575.803 342.713C589.4 316.04 581.032 296.69 557.498 281.524C528.211 262.696 492.126 265.834 460.224 279.955C442.965 287.799 435.121 294.075 424.661 306.104C389.621 347.942 392.759 398.672 423.092 439.464C438.781 460.906 467.023 478.688 507.292 478.165C597.245 477.642 649.543 403.901 749.956 420.637C760.415 422.206 784.995 427.436 793.886 435.28V435.803C794.409 435.803 794.409 436.326 794.409 436.326L794.932 436.849ZM1249.93 266.357C1255.68 262.173 1272.41 257.467 1280.26 255.898C1292.29 253.806 1304.84 253.806 1316.87 255.898C1328.9 258.513 1337.26 262.173 1347.2 266.88C1352.95 269.495 1368.12 279.432 1370.73 283.093C1367.07 289.891 1358.71 298.259 1350.34 300.874C1340.92 291.983 1317.91 279.432 1299.61 278.386C1279.74 277.34 1275.03 285.708 1269.8 282.57C1267.71 281.524 1252.02 268.972 1249.93 266.357ZM736.881 454.108C723.283 460.906 712.301 465.613 699.749 472.935C684.583 482.349 680.922 487.578 665.232 494.9C639.606 506.929 613.457 517.911 586.785 528.894C555.929 541.445 533.441 552.428 494.218 549.29C462.316 546.675 433.029 535.693 410.018 521.049C355.627 487.055 336.277 426.39 351.967 363.632C360.334 329.115 373.409 310.288 393.805 293.029C409.495 279.432 444.534 261.127 472.775 259.036C467.023 261.127 459.701 263.219 453.948 265.311C423.615 276.294 401.65 294.075 387.006 322.839C381.254 333.299 376.547 345.85 373.409 358.925C357.719 429.004 385.437 470.32 427.276 495.423C448.195 507.452 475.39 517.388 504.154 518.957C534.487 520.526 560.636 510.59 585.216 500.653C622.348 485.486 690.859 450.97 736.881 454.108ZM1341.97 325.454C1335.17 331.207 1312.68 336.437 1302.75 332.776C1290.72 328.069 1280.26 322.839 1270.85 316.04C1239.99 295.644 1247.31 293.029 1239.99 274.202C1237.37 268.449 1233.71 261.127 1232.14 256.944C1241.56 263.742 1247.31 271.587 1255.16 278.909C1280.26 302.966 1303.79 318.655 1341.97 325.454ZM667.324 496.469C665.232 500.13 662.095 502.222 658.957 504.837C656.865 507.452 654.25 510.067 651.635 513.204C628.624 540.922 641.175 537.262 620.779 544.06C613.457 546.152 605.613 549.29 598.291 551.905C567.958 563.411 537.102 575.962 501.016 579.1C492.126 579.623 464.408 581.715 457.609 576.485C441.919 564.98 428.322 556.612 408.972 548.244C357.719 525.756 368.179 547.198 346.214 517.911C321.634 485.486 311.697 439.464 321.111 396.057C327.909 365.724 343.076 329.638 358.242 309.765L373.409 293.029C378.639 288.322 384.391 283.616 390.667 279.432C412.109 264.265 456.04 251.714 484.281 249.622C498.401 248.576 513.045 249.099 526.642 252.237C530.826 253.283 535.01 255.375 537.625 255.898C530.826 256.421 520.89 254.329 513.045 253.806C488.465 253.283 463.885 256.421 441.396 264.265C413.155 273.679 389.098 289.891 375.501 307.673C358.242 330.161 348.829 356.31 345.691 386.643C338.892 447.832 365.564 501.699 418.908 528.894C443.488 541.445 472.775 551.382 504.677 551.905C540.24 552.428 563.251 541.445 591.492 529.417L648.497 504.837C654.25 502.745 662.095 498.038 667.324 496.469ZM661.049 251.191C725.898 239.685 742.634 226.088 801.731 256.944C798.593 261.127 792.317 264.265 787.087 266.88C765.122 279.955 774.536 274.725 754.139 268.972C727.467 261.65 714.393 268.972 689.29 268.972C676.738 269.495 678.307 268.972 672.554 262.696C668.893 258.513 664.187 254.852 661.049 251.191ZM1229.53 247.53C1235.81 242.823 1259.86 236.024 1269.8 233.932C1300.66 227.657 1330.46 231.84 1357.14 247.53C1361.32 250.145 1370.21 256.421 1371.78 259.558C1374.92 265.311 1375.96 275.248 1371.78 280.478C1361.84 273.679 1359.75 271.064 1347.2 264.265C1325.76 253.283 1301.7 249.099 1277.64 253.806C1260.91 257.467 1253.06 263.219 1247.31 264.265C1243.65 261.127 1231.62 251.191 1229.53 247.53ZM944.505 323.885C935.614 307.673 938.229 280.478 944.505 263.742C950.257 247.53 956.01 240.208 966.47 230.272C971.177 225.565 969.608 225.565 976.929 222.95C1018.77 210.398 1062.18 208.829 1101.92 225.565C1131.73 238.116 1161.54 267.403 1171.48 301.92C1179.85 331.73 1171.48 364.678 1155.27 389.258L1139.05 408.608L1116.04 393.965C1124.93 389.258 1132.26 373.045 1135.39 358.402C1144.81 313.426 1125.98 271.064 1081 254.852C1052.76 244.392 1015.11 247.53 988.435 259.036C957.579 272.11 948.166 291.46 944.505 323.885ZM236.388 250.145C255.738 251.191 269.335 252.237 288.686 249.622C292.87 249.622 299.668 248.053 303.329 248.053L287.117 265.311C284.502 268.449 285.548 267.926 280.841 269.495C268.29 272.633 254.169 273.679 240.572 272.633L236.388 250.145ZM252.077 367.816C258.876 361.017 265.675 353.172 272.996 346.373C277.18 342.713 279.272 339.052 283.979 334.868C287.64 331.207 289.209 328.069 293.916 323.885C297.576 320.747 300.714 316.04 304.375 312.38C306.467 310.288 308.036 309.242 310.128 307.15C334.185 282.57 356.15 261.127 389.621 245.961C411.063 236.547 433.552 230.272 459.701 228.703C511.476 225.565 561.159 245.438 592.538 269.495C604.044 278.386 624.963 300.351 636.991 311.857C644.313 318.655 651.635 324.931 660.003 331.73C667.324 338.529 680.922 347.419 684.06 350.557C677.784 352.126 672.031 352.649 666.278 354.741C655.296 357.879 656.342 358.925 650.589 355.787C623.394 339.052 624.963 340.098 605.09 316.04C593.584 301.92 593.584 304.012 584.693 294.598C581.032 290.937 579.464 281.524 566.389 269.495C509.907 214.582 393.805 260.081 350.921 302.966C344.122 309.765 338.369 317.609 331.57 326.5C322.157 339.052 300.714 357.879 288.163 367.816C282.41 372.522 281.364 369.908 272.473 368.862C265.152 368.339 258.876 368.339 252.077 367.816ZM1269.8 288.322C1273.98 289.891 1286.53 300.351 1305.36 306.627C1358.71 323.885 1402.64 275.248 1362.89 241.254C1387.47 242.823 1401.07 260.604 1396.36 285.185C1395.31 289.368 1395.84 288.845 1393.22 290.937C1380.67 300.351 1365.5 311.857 1352.43 320.224C1347.2 323.362 1346.15 323.885 1338.83 322.839C1321.05 320.224 1303.27 312.38 1288.63 302.966L1269.8 288.322ZM1357.14 238.116C1366.03 231.84 1390.61 232.363 1402.11 237.07C1412.57 241.254 1425.65 253.283 1427.74 265.311C1419.37 269.495 1406.3 281.524 1398.45 286.231C1400.02 270.541 1398.98 258.513 1390.08 250.145C1382.76 243.346 1370.73 239.162 1357.14 238.116ZM1358.71 234.455C1363.41 229.749 1375.96 225.565 1383.81 222.95C1416.23 213.536 1442.38 225.565 1464.35 245.438C1461.73 247.007 1450.75 251.714 1447.09 253.806C1441.86 256.421 1434.54 261.65 1430.35 263.219C1425.12 255.375 1421.99 243.346 1404.21 235.501C1385.9 227.134 1372.83 232.886 1358.71 234.455ZM217.56 366.77C222.79 363.109 227.497 358.925 231.681 354.741L293.916 286.231C315.881 262.696 339.938 245.438 369.748 231.84C456.04 191.571 540.24 204.645 609.796 257.467C615.549 262.173 633.331 276.817 637.514 282.047C641.175 286.231 646.928 290.937 650.589 294.598C655.296 298.782 659.48 302.966 664.187 307.15C702.364 340.621 718.577 340.621 727.99 347.419C719.623 347.419 711.778 347.419 703.41 347.942C693.996 348.988 689.813 351.603 683.014 346.896C674.646 341.144 654.773 325.454 647.974 318.655C645.882 316.563 644.313 314.995 641.698 312.903L603.521 275.248C571.619 246.484 513.568 221.904 452.902 227.134C410.54 230.795 376.547 247.007 345.691 271.064L332.093 282.57C327.386 287.276 322.68 289.891 319.019 294.598C315.358 299.305 311.697 301.92 306.467 307.15C301.76 311.334 298.622 316.04 294.439 320.224C283.979 330.161 268.813 347.942 257.83 358.925C248.939 367.816 250.508 367.816 242.14 368.862C228.02 370.431 206.055 376.706 201.871 377.229L217.56 366.77ZM717.531 315.517C722.237 314.995 731.651 316.04 737.927 315.517C756.231 314.995 773.49 309.765 790.225 302.966C827.88 287.799 843.569 271.587 872.333 254.329C897.436 239.162 939.275 223.996 968.562 221.381C966.47 224.519 961.763 227.657 958.625 231.317C946.074 247.53 946.074 248.053 938.229 268.449C887.5 274.202 866.057 292.506 827.357 308.719C809.575 316.563 790.225 322.316 769.829 326.5C764.599 327.546 741.065 332.776 737.404 331.73C735.835 331.207 727.99 324.931 726.421 323.885L717.531 315.517ZM1358.71 231.317C1357.66 232.363 1360.8 231.84 1356.61 232.886C1356.61 232.363 1356.61 231.84 1357.14 231.317C1358.18 229.749 1357.14 230.795 1358.71 229.749C1361.32 228.18 1368.12 220.858 1372.3 217.72C1387.99 205.168 1407.87 197.324 1429.83 199.939C1453.37 202.554 1483.18 219.289 1496.25 235.501L1466.96 244.392L1456.5 236.024C1435.58 219.289 1411 213.536 1384.33 220.335C1370.21 224.519 1367.07 228.18 1358.71 231.317ZM981.113 217.72C981.636 217.197 982.682 216.674 983.205 216.151L998.372 207.783C1021.38 195.755 1053.81 195.232 1079.43 197.847C1118.66 201.508 1145.85 213.013 1169.91 231.84C1195.01 251.714 1207.56 281.524 1211.23 314.472C1212.27 324.408 1212.79 334.868 1212.27 344.804C1210.7 359.971 1211.23 356.833 1199.72 362.586L1160.5 385.597C1166.25 371.477 1169.91 370.431 1174.62 348.988C1177.75 334.868 1177.75 318.655 1174.09 304.535C1170.96 291.46 1165.73 280.478 1158.93 270.541C1127.03 225.042 1078.39 206.214 1020.34 211.967C998.895 214.059 994.711 217.197 978.498 219.812L981.113 217.72ZM1028.7 196.278C1034.46 195.232 1041.78 192.617 1048.05 191.571C1069.5 187.91 1093.03 187.387 1114.47 189.479C1143.76 192.617 1165.73 199.939 1186.12 213.536C1227.44 240.731 1251.49 292.506 1243.13 344.804C1237.9 346.373 1233.19 347.942 1227.96 350.034C1223.78 351.603 1217.5 354.741 1213.32 355.787C1219.59 295.121 1201.29 253.283 1168.34 227.657C1141.15 206.737 1106.11 196.278 1070.02 194.709C1053.81 194.186 1033.93 196.278 1028.7 196.278ZM696.088 289.368C703.933 289.368 717.008 296.167 744.726 289.891C782.903 281.001 816.897 251.191 849.322 231.84C892.206 205.691 960.717 182.157 1023.47 192.617C1007.79 198.893 996.28 203.076 983.205 210.921C979.544 213.536 976.929 215.628 973.792 217.72C972.223 218.766 945.028 223.473 938.229 225.565C904.758 233.932 879.655 245.438 856.644 262.173C823.696 286.231 775.059 314.472 729.559 313.949C726.944 313.426 718.577 313.426 715.962 312.38C711.778 311.334 700.272 292.506 696.088 289.368ZM304.898 242.3C292.347 245.961 278.226 247.007 263.583 247.007C227.497 247.007 234.819 245.961 229.589 235.501C226.451 230.272 223.836 226.611 220.698 221.904C217.56 217.72 212.853 214.059 210.762 208.829C191.934 170.652 207.624 129.859 242.14 120.445C272.473 112.078 301.237 134.043 292.347 153.916C289.209 144.503 285.548 138.227 276.657 135.089C266.721 131.951 256.261 133.52 247.893 137.181C231.681 144.503 221.744 159.146 225.405 182.68C232.204 226.611 265.675 240.731 304.898 242.3ZM1079.96 180.065C1083.09 177.45 1088.32 175.358 1091.99 173.267C1119.18 156.531 1138.53 134.043 1166.25 117.308C1183.51 107.371 1205.47 102.664 1223.25 115.216C1252.02 136.658 1223.78 163.853 1215.93 149.209C1230.58 142.411 1224.82 120.968 1199.72 121.491C1184.03 122.014 1167.82 132.997 1158.4 139.796C1142.71 151.301 1107.15 179.019 1079.96 180.065ZM178.337 186.864C177.814 169.083 181.475 153.393 189.319 140.319C197.164 127.767 203.963 118.876 217.037 111.555C235.342 101.095 267.767 101.095 282.933 117.308C286.071 120.445 292.347 128.29 292.87 134.566C289.732 131.951 288.686 127.244 278.749 122.014C272.473 118.353 267.244 116.785 258.876 116.262C230.112 114.693 207.624 135.089 201.348 162.807C196.641 186.864 205.532 197.324 206.578 206.737C205.009 203.599 184.089 188.433 178.337 186.864ZM1069.5 181.111C1070.02 180.588 1070.02 180.588 1071.07 179.542L1073.68 177.45C1075.25 176.404 1076.3 175.881 1077.34 174.835C1079.96 172.744 1082.05 170.652 1084.14 168.56C1088.85 163.853 1091.99 160.192 1096.17 154.439C1113.95 131.951 1112.9 120.445 1145.85 99.5262C1182.46 75.992 1234.76 73.9001 1254.63 112.078C1275.03 150.255 1239.47 177.45 1222.21 156.008C1227.96 152.347 1230.58 153.916 1234.24 148.163C1244.17 134.043 1233.71 118.876 1220.12 111.032C1200.24 99.0032 1177.23 108.417 1161.02 117.831C1144.81 128.29 1131.73 140.319 1117.61 151.824C1110.81 157.054 1081 180.065 1069.5 181.111ZM151.665 175.881C152.188 146.072 174.676 122.537 191.411 111.555C212.33 97.4342 246.324 88.5435 269.858 106.325C264.106 105.279 258.876 102.664 251.554 102.141C205.532 98.4802 175.722 140.319 175.722 184.772L151.665 175.881ZM1125.46 111.555C1133.82 95.8653 1159.45 75.992 1176.19 67.6243C1188.21 61.3485 1197.1 57.6876 1212.79 57.1647C1226.91 56.1187 1241.04 58.7336 1252.02 64.4864C1268.75 73.9001 1289.15 95.8653 1286.01 125.152C1284.44 138.75 1276.07 149.732 1269.28 155.485C1249.4 172.744 1249.93 169.606 1239.47 166.468C1245.22 162.284 1253.06 162.807 1259.34 151.301C1271.37 128.813 1255.16 97.9572 1228.48 85.4057C1199.72 71.8081 1160.5 84.8827 1135.39 103.71C1132.78 105.802 1128.07 110.509 1125.46 111.555ZM415.77 108.417C412.109 135.612 377.593 143.98 366.087 118.353C357.196 97.9572 371.317 72.3311 395.897 63.9634C408.449 59.2566 422.569 59.7796 434.598 64.4864C454.471 72.3311 471.206 90.6355 476.959 111.555C480.62 124.629 482.189 136.135 479.051 149.732C473.298 116.785 460.224 86.9746 436.69 75.469C394.851 56.6417 362.426 116.262 415.77 108.417ZM483.758 125.152L482.712 129.859L481.666 125.675C482.189 114.693 475.39 99.0032 470.683 91.6814C450.287 62.3945 412.632 46.705 382.299 68.1473C374.455 73.3771 366.61 81.7448 362.949 93.7734C351.967 129.859 392.236 152.347 412.632 122.537C416.293 117.308 416.293 111.555 418.908 107.371C422.046 111.555 415.77 137.704 399.035 148.686C377.07 163.853 350.398 153.916 339.938 126.721C315.358 63.9634 387.006 6.95844 445.58 40.9522C463.362 50.8889 485.327 76.515 485.85 95.8653C485.85 105.802 483.758 116.262 483.758 125.152ZM1213.84 54.5497C1219.07 51.4119 1240.51 50.8889 1245.74 51.4119C1309.02 56.1187 1319.48 118.353 1298.56 150.255C1293.86 157.054 1289.15 162.807 1281.3 166.991C1273.98 170.652 1261.43 173.79 1252.54 170.129C1265.62 162.807 1275.03 155.485 1282.35 143.457C1297.52 117.308 1283.4 82.2678 1258.82 66.0553C1245.22 57.1647 1232.14 55.0727 1213.84 54.5497ZM420.477 117.831L421.523 116.262L422.046 119.399C422.046 143.98 415.247 158.1 397.466 166.991C377.593 176.927 357.719 174.313 341.507 162.284C331.047 154.962 316.404 136.135 313.266 117.308C300.714 32.5845 385.437 -18.6677 442.442 15.3261C463.362 27.8777 483.235 54.0268 484.281 81.2218C480.62 74.423 478.005 68.6702 473.298 62.9175C460.747 46.705 444.011 33.6305 421 29.4466C385.96 23.6938 355.104 44.0901 343.076 63.9634C326.863 92.7274 331.047 131.951 353.013 149.732C370.794 163.853 397.989 159.146 412.109 138.75C415.247 133.52 419.431 125.152 420.477 117.831ZM1.04596 427.959V429.527H2.61491C6.27578 429.004 9.41367 427.436 13.0745 426.913C27.718 422.729 53.3441 417.499 67.9876 416.976C76.8783 416.976 84.723 415.93 94.1367 416.453C126.039 418.022 150.619 423.252 179.906 435.28C209.193 447.832 234.296 467.182 256.784 489.147C257.83 490.193 258.876 491.239 259.922 492.285C261.491 493.854 261.491 494.377 263.06 495.946L288.686 528.894C290.255 530.986 290.778 530.986 291.301 533.078C286.594 533.078 281.364 534.647 277.18 535.693C272.996 536.216 268.813 538.308 263.583 538.308C262.014 535.693 260.968 534.124 258.876 531.509C249.462 519.48 234.819 504.837 222.79 495.946C203.44 481.303 190.888 474.504 168.4 465.613C157.94 461.429 160.032 464.044 151.665 457.768C122.901 435.28 71.1255 434.234 35.5627 448.355C29.287 450.97 24.0572 453.062 18.8273 456.2C6.79876 462.998 5.7528 460.383 1.04596 462.475V464.567L2.61491 464.044C6.79876 464.044 3.66087 464.044 4.70683 465.09C2.61491 465.613 2.09193 466.659 0 467.705V475.55L12.5516 466.136C16.7354 462.998 21.4422 459.337 26.1491 457.245C62.2348 442.602 102.504 436.849 137.021 454.108C172.584 471.889 184.089 516.342 166.831 544.06C162.647 550.859 149.573 562.365 140.682 563.411C147.481 552.951 152.188 555.566 157.94 537.262C169.446 501.699 148.004 464.567 108.78 460.383C78.9702 457.245 36.6087 477.119 17.2584 500.13C12.0286 506.406 0 518.957 0 527.848H1.56894C3.66087 520.003 14.6435 506.929 20.3963 501.176C27.718 493.331 35.5627 486.532 44.9764 480.78C60.1429 470.843 89.4298 458.291 115.579 464.044C127.085 466.659 138.067 472.412 144.343 479.734C160.555 499.084 163.17 526.802 150.096 547.721C145.912 555.043 140.159 560.796 132.837 564.457C129.176 566.549 128.653 566.549 123.424 566.549C129.699 560.796 134.406 560.273 138.59 550.859C142.251 542.491 142.251 534.124 140.682 524.71C137.544 509.021 127.607 495.946 112.964 490.193C83.1541 477.119 44.9764 499.084 27.718 522.095C19.3503 533.601 12.0286 548.244 10.4596 566.549C8.89069 584.853 13.0745 601.065 20.9193 617.278C27.195 630.352 39.2236 642.381 50.2062 650.226C56.482 654.409 62.7578 658.07 70.0795 661.731C73.7404 663.3 88.3839 669.576 93.6137 669.576C91.5218 672.191 90.4758 671.668 87.8609 672.714L74.7864 678.467C65.3727 683.173 62.7578 682.127 52.2982 678.99C47.5913 677.944 42.8845 675.852 38.7006 673.237C29.8099 669.053 23.5342 663.823 17.2584 657.024L0 636.105C0 644.473 8.89069 651.272 13.5975 657.024C20.3963 666.438 31.3789 672.714 41.3155 677.944C44.4534 678.99 48.1143 681.082 51.2522 681.605C53.8671 682.65 60.6659 683.173 62.7578 684.219C60.6659 686.834 51.2522 691.018 48.1143 693.11C39.2236 698.863 42.3615 697.817 31.3789 694.156C28.241 693.11 26.6721 692.064 23.5342 691.018C20.3963 689.449 18.3044 688.926 15.1665 686.834C12.5516 685.265 10.4596 684.219 7.84472 682.127C5.22982 680.559 3.13789 678.467 0 677.944C0.522982 680.559 0.522982 681.082 2.61491 682.127C13.0745 689.972 25.6261 695.725 38.1777 698.863C36.6087 701.478 25.1031 708.8 21.4422 711.414C16.7354 715.598 7.32174 708.8 0 707.231C0.522982 711.414 2.61491 710.368 6.79876 712.46C10.4596 713.506 12.5516 714.029 16.2124 715.075C13.5975 719.259 8.89069 721.874 5.22982 725.012C3.13789 727.104 3.66087 727.104 0 727.104V734.426C4.18385 733.38 12.5516 724.489 16.7354 721.351C28.764 711.937 40.2696 703.57 52.8211 695.725C88.3839 674.283 121.855 661.208 171.538 660.685C189.319 660.685 208.67 662.777 226.451 666.438C263.06 673.76 285.548 680.036 313.266 702.524C321.634 709.323 330.001 716.121 337.846 723.966L361.38 745.408C380.731 760.575 394.851 773.126 421.523 778.356C448.718 784.109 472.775 776.264 492.126 760.575C503.631 751.161 511.476 734.949 511.476 719.259C511.476 696.248 493.695 671.668 471.206 666.438C444.011 660.162 414.724 680.559 430.937 705.662C434.598 711.414 439.304 715.075 445.58 718.736C445.58 718.736 445.58 718.736 446.103 718.736C447.149 719.782 446.626 719.259 447.149 719.782C426.23 719.782 403.742 711.937 407.403 689.972C411.063 669.053 424.138 659.116 442.965 652.841C480.097 640.812 521.936 660.685 535.01 697.817C557.498 761.098 492.649 830.654 410.018 797.183C401.65 794.046 392.236 789.862 384.914 785.155C370.271 776.264 356.673 766.85 342.03 756.914C293.393 723.443 268.29 693.11 197.687 684.742C176.768 682.65 149.573 682.127 131.268 686.834C95.7056 696.248 64.8497 714.029 36.0857 736.518C32.4249 739.132 29.8099 741.747 26.1491 744.885L3.66087 766.328C1.04596 768.942 0 768.419 0 772.603C5.22982 769.465 10.9826 761.621 16.2124 756.914L24.5801 749.592C52.2982 726.581 80.5392 705.662 115.579 694.156C166.308 677.421 233.773 687.357 275.088 711.937C301.76 728.15 325.295 748.546 350.921 766.328L379.685 785.155C383.345 787.247 385.96 788.816 390.144 790.908C419.954 807.643 460.224 816.534 492.126 799.798C514.091 787.77 530.303 772.603 538.148 748.546C557.498 687.357 502.062 630.352 440.873 651.272C436.69 652.318 433.029 654.932 429.368 655.978C431.46 652.841 439.304 648.134 443.488 646.565C464.408 637.674 484.281 637.674 505.2 642.904C515.66 645.519 530.303 653.364 536.579 659.639C561.682 683.696 572.665 711.937 558.021 746.454C555.929 751.161 552.268 757.96 549.131 762.144C537.625 778.356 528.211 786.724 513.045 798.752C509.384 801.89 502.062 805.551 499.447 809.212C510.43 809.212 508.338 808.689 515.137 803.982C523.505 797.706 518.798 797.706 544.424 806.074C551.223 808.689 553.314 809.212 562.728 809.212L560.636 808.689C560.113 808.166 559.067 807.643 558.544 807.643L523.505 797.183C528.211 793.523 532.918 787.247 537.625 784.109C549.131 790.385 560.636 795.091 573.188 799.798L593.584 806.074C596.722 807.12 599.86 807.643 603.521 808.689C607.182 809.735 611.888 809.212 617.118 809.212V808.689C610.842 808.689 601.952 805.551 596.199 803.982L566.389 794.569C563.251 793.523 560.636 792.477 556.975 790.908C550.7 788.293 545.47 785.678 539.717 782.54C540.763 779.402 540.763 780.448 542.855 778.356L552.791 765.282C556.975 766.85 562.205 770.511 565.866 772.603C570.05 775.218 575.28 777.833 579.987 779.925C584.693 782.017 588.354 784.109 593.584 786.201C598.814 788.293 602.998 790.385 608.75 792.477C627.578 799.798 653.204 809.212 674.646 809.212V808.689C669.416 808.689 662.618 806.074 657.911 805.028C623.917 796.66 590.969 784.109 561.159 766.85C558.544 765.805 556.975 764.236 554.36 763.19L563.251 745.931C566.912 748.023 569.527 749.592 572.665 752.207C582.078 758.483 592.015 763.713 602.475 768.419C616.595 775.741 630.716 780.971 645.882 787.247C669.416 796.137 706.025 805.551 731.651 809.212C735.835 809.735 743.157 809.212 747.341 809.212V808.689C731.651 808.689 687.721 797.706 670.985 792.477C647.451 785.678 624.963 777.31 603.521 766.328C595.153 762.144 569.004 748.546 564.82 742.793C566.389 737.564 569.004 730.765 569.004 725.012C571.619 726.058 573.188 727.104 575.28 729.196C577.372 730.765 579.464 731.811 581.555 733.38C628.624 764.236 662.618 776.787 717.531 790.908C746.818 798.229 776.628 803.459 806.438 808.689C812.19 809.735 821.081 809.212 827.88 809.212V808.689C815.851 808.689 801.731 805.551 790.225 803.459C755.185 796.137 718.054 789.862 684.583 778.879C643.79 766.328 617.118 753.776 582.078 730.765C577.895 727.627 573.188 723.966 569.004 721.351C572.665 706.185 564.297 694.156 561.682 683.696C563.251 684.742 564.82 685.788 566.912 687.357L604.044 715.075C630.716 732.857 658.957 748.023 688.767 760.052L716.485 769.988C721.715 771.557 725.375 773.126 730.605 774.172L759.369 783.063C837.293 805.028 936.66 815.488 1017.72 788.816C1060.08 774.695 1089.37 754.822 1127.03 731.811L1161.02 709.846C1176.71 700.432 1190.83 689.972 1206.52 680.559C1215.41 674.806 1224.3 668.007 1234.24 662.777C1237.37 660.685 1256.72 661.208 1260.39 660.685C1299.61 658.593 1337.26 639.766 1356.61 607.341C1357.66 605.249 1358.71 604.203 1359.75 601.588C1362.37 595.313 1363.41 596.359 1370.21 593.744C1372.83 592.175 1374.4 591.652 1377.01 590.606C1382.76 587.991 1398.45 580.146 1403.16 579.623C1404.21 589.037 1418.85 607.864 1420.42 616.232C1407.34 617.278 1353.48 638.197 1338.31 644.473C1293.86 662.254 1255.16 689.972 1213.32 712.46L1160.5 741.224C1156.31 743.316 1152.13 745.408 1147.42 748.023C1129.64 757.96 1111.34 765.805 1093.03 774.695C1084.14 779.402 1074.73 784.109 1064.79 787.247C1054.85 790.908 1044.92 794.046 1033.93 797.183C1014.58 801.89 984.251 808.689 964.378 808.689V809.212C979.544 809.212 986.866 809.212 1002.03 806.597C1024 802.413 1045.96 797.183 1066.36 789.862C1093.03 779.925 1135.92 756.391 1162.06 743.316C1184.55 732.334 1206.52 720.305 1227.96 707.754C1232.14 704.616 1236.33 703.047 1240.51 699.909C1289.15 671.668 1305.88 660.162 1361.32 638.197C1370.73 634.013 1380.67 630.875 1391.13 627.214C1395.84 625.645 1401.59 624.077 1406.3 622.508C1410.48 620.939 1418.33 618.324 1423.03 618.324C1424.08 623.554 1430.35 630.875 1432.97 635.059L1445 650.749C1440.29 651.795 1435.58 652.841 1430.88 653.364C1417.28 655.455 1402.64 659.639 1389.56 663.3C1369.17 669.053 1348.25 676.898 1328.9 686.834L1306.41 698.34C1290.2 707.231 1265.62 720.305 1249.4 726.581L1226.91 737.564C1222.73 739.655 1220.12 741.224 1215.41 742.793L1168.86 764.759C1154.74 771.557 1101.4 795.614 1086.76 800.844L1061.13 809.212C1071.59 809.212 1078.39 806.597 1087.8 802.936C1108.72 796.137 1127.03 785.678 1147.42 777.31L1228.48 739.655C1240.51 734.949 1261.43 723.966 1273.98 717.69C1296.47 706.708 1318.96 693.633 1341.97 683.696C1357.66 676.375 1373.35 671.145 1391.13 665.392C1401.59 662.254 1435.58 653.886 1447.09 653.364C1449.18 655.978 1450.75 658.07 1452.84 660.685C1458.07 667.484 1465.92 674.806 1470.62 681.605C1438.2 684.742 1403.16 692.064 1373.35 704.616C1316.87 729.196 1259.86 752.207 1202.33 775.218C1187.69 780.971 1173.05 786.201 1158.93 791.954C1152.65 794.569 1118.13 806.597 1115.52 809.212C1122.84 809.212 1123.89 808.689 1129.12 806.074C1182.46 785.155 1235.81 765.282 1288.63 743.316C1321.05 729.719 1382.24 702.524 1412.05 694.679C1420.94 692.587 1430.35 690.495 1440.29 688.403C1449.7 686.834 1461.73 685.265 1471.15 684.219C1475.85 684.219 1477.42 688.926 1480.04 691.541L1507.23 716.644C1452.32 716.644 1402.11 726.581 1351.91 743.316C1320.53 753.776 1289.67 767.373 1258.82 779.925C1252.02 782.017 1246.26 784.632 1239.99 786.724C1232.67 789.339 1227.44 791.431 1221.16 794.046C1210.18 798.229 1199.72 803.459 1188.74 807.12L1183.51 809.212C1192.4 809.212 1197.1 806.597 1204.43 803.459L1263.52 780.448C1270.32 777.833 1276.07 775.741 1282.87 773.126C1344.06 748.546 1379.63 732.857 1450.23 722.92L1475.33 720.828C1482.65 719.782 1507.23 716.644 1512.99 720.828C1515.6 722.92 1517.69 725.535 1520.83 726.581V720.828C1517.17 719.782 1512.99 715.075 1509.85 712.46L1498.87 703.047C1496.77 700.955 1496.25 700.432 1493.64 698.863L1469.06 672.191C1454.41 657.547 1436.11 632.444 1425.65 614.663C1415.19 597.404 1406.3 578.577 1400.54 558.704C1398.45 552.428 1391.65 532.032 1391.13 527.848L1417.8 574.916C1428.79 595.836 1438.2 614.14 1452.32 632.967C1459.12 641.858 1466.44 650.226 1474.28 658.07L1474.81 659.116C1474.81 659.116 1475.85 660.162 1476.38 660.162C1502.53 684.219 1494.68 677.421 1520.83 694.679C1520.83 689.449 1516.12 688.926 1512.46 686.311C1498.34 676.898 1485.79 666.438 1474.28 654.932C1472.72 653.364 1471.15 651.795 1469.58 650.226C1457.55 636.105 1445 620.939 1436.11 604.203C1419.89 574.393 1406.3 541.968 1385.9 514.25C1383.29 511.113 1381.19 507.975 1378.58 504.837C1377.01 503.268 1375.96 501.176 1374.4 499.607C1372.3 497.515 1371.78 497.515 1369.69 495.946C1365.5 492.285 1364.98 490.716 1359.75 488.624C1346.68 482.872 1325.76 482.349 1313.21 486.009C1295.95 490.716 1279.21 502.745 1278.17 522.095C1277.64 536.739 1283.92 549.29 1296.99 556.089C1300.66 557.658 1308.5 559.227 1310.07 560.796C1303.27 561.319 1301.7 562.888 1292.81 562.365C1278.69 561.319 1264.57 551.905 1256.72 541.445C1250.97 534.124 1246.79 525.756 1246.79 513.204C1246.79 466.659 1312.68 445.74 1357.66 467.182C1379.63 477.119 1395.84 490.716 1413.1 507.452C1432.45 526.802 1446.57 550.336 1463.83 571.778L1500.43 612.571C1502 614.663 1503.57 615.186 1505.66 617.278C1510.37 621.985 1515.6 627.214 1520.83 630.875C1520.83 626.691 1519.78 626.168 1517.17 624.077L1500.43 608.91C1477.42 585.899 1462.26 564.457 1442.38 538.308C1439.25 534.124 1436.63 530.463 1432.97 526.279C1431.4 524.187 1429.83 522.095 1428.26 520.526C1426.17 518.434 1425.65 516.865 1423.56 514.773C1418.33 509.544 1413.62 503.268 1407.87 498.561C1397.93 490.193 1389.04 481.826 1377.53 474.504C1368.64 468.751 1358.71 464.044 1348.25 460.906C1325.76 453.585 1300.13 454.631 1277.12 465.613C1272.94 467.705 1268.23 470.843 1264.57 473.981C1246.26 487.578 1237.9 511.636 1248.88 533.601C1258.82 553.997 1279.74 566.549 1302.75 564.98C1309.55 564.457 1321.05 559.75 1325.24 555.043C1332.03 548.244 1334.65 540.4 1338.31 535.693C1338.31 539.354 1339.36 541.968 1339.36 547.198C1339.36 557.135 1336.22 568.118 1330.99 575.439C1325.24 583.807 1313.73 593.221 1301.7 595.313C1275.55 600.542 1256.2 589.56 1238.42 574.916C1235.81 572.824 1233.71 571.778 1231.62 568.641C1223.78 559.75 1217.5 550.859 1214.36 537.262C1210.18 521.572 1213.32 507.452 1218.55 495.423C1227.96 473.458 1247.31 455.677 1268.75 446.786C1307.45 431.096 1354 440.51 1389.56 458.814C1402.64 465.09 1415.71 473.458 1427.22 482.872C1436.11 489.67 1445.52 496.992 1453.37 504.837C1455.46 506.929 1457.55 509.021 1459.64 511.113C1462.26 513.204 1463.3 514.25 1465.92 516.865L1484.74 535.693C1492.07 543.014 1516.12 570.209 1520.83 573.87C1520.83 568.641 1519.78 569.163 1516.65 566.026C1514.55 563.934 1512.46 561.842 1510.37 559.227C1508.28 556.612 1507.23 555.566 1504.62 552.951L1486.31 533.078C1476.9 521.572 1463.83 512.682 1453.37 501.699C1437.15 485.486 1406.3 462.998 1386.95 454.108C1374.4 448.878 1362.37 444.171 1348.77 440.51C1321.05 433.711 1288.63 435.28 1261.43 447.309C1245.74 454.108 1230.58 469.274 1222.21 483.395C1201.81 516.865 1207.04 547.198 1233.71 574.393C1237.9 578.577 1243.13 582.238 1247.83 585.376C1264.05 596.359 1289.15 604.203 1308.5 595.836C1332.56 585.899 1343.54 564.98 1341.45 539.877C1341.45 535.693 1336.74 526.802 1343.54 530.986C1358.71 541.445 1357.66 549.29 1353.48 567.072C1349.82 583.284 1343.54 593.744 1332.03 602.634C1319.48 612.048 1305.36 614.663 1289.15 616.232C1278.17 616.755 1271.89 614.663 1264.05 612.571C1257.77 611.002 1248.88 607.864 1243.13 604.726C1233.71 600.542 1221.16 593.221 1214.36 585.376C1208.61 579.1 1202.86 572.301 1199.2 564.457C1196.58 557.658 1193.97 550.336 1192.4 543.014C1188.21 518.434 1192.4 493.331 1204.95 473.458C1210.18 464.567 1216.46 456.722 1223.25 449.924C1230.58 443.125 1238.94 436.849 1247.83 432.142C1260.39 425.344 1273.46 420.114 1289.67 416.976C1354.52 402.855 1417.8 432.665 1468.53 471.366L1495.2 493.854C1503.57 501.176 1517.69 517.911 1520.83 518.434C1520.83 513.727 1515.08 509.544 1511.42 506.406L1494.68 489.147C1492.07 487.055 1491.02 486.532 1488.41 483.918C1486.31 481.826 1484.74 480.78 1482.13 478.688C1468.01 465.09 1439.25 446.263 1421.46 437.372C1400.02 426.913 1379.1 418.022 1354.52 413.315C1327.33 408.608 1296.47 410.7 1273.98 418.545C1256.72 423.775 1242.6 430.573 1229.01 441.556C1212.27 455.677 1198.15 473.981 1192.4 495.946C1187.17 515.296 1187.69 536.739 1192.92 555.043C1202.86 587.468 1232.67 606.818 1264.05 615.186L1266.66 616.232C1267.18 616.232 1267.18 616.755 1267.18 616.755C1267.71 616.755 1267.71 616.755 1267.71 616.755C1246.26 616.755 1227.44 613.094 1210.7 603.68C1204.95 600.019 1201.29 597.404 1196.06 593.221C1192.4 590.606 1188.21 584.853 1185.08 581.192C1158.93 544.583 1169.39 483.918 1191.35 450.97C1199.72 438.941 1208.61 429.004 1220.64 421.16C1249.93 402.855 1282.87 392.396 1321.57 390.304C1325.24 390.304 1326.8 389.781 1332.03 389.781C1370.73 389.781 1404.73 396.057 1438.72 415.407C1443.95 418.022 1448.66 420.637 1453.37 423.775C1455.98 425.867 1458.07 426.913 1460.69 429.004C1463.3 430.573 1465.39 432.142 1468.01 433.711C1477.42 439.987 1486.31 447.832 1495.2 454.631C1504.09 461.429 1511.94 470.32 1520.83 476.596C1520.83 470.843 1512.46 465.613 1508.28 462.475L1501.48 456.2C1489.45 445.74 1475.85 435.803 1462.78 426.913C1407.87 390.304 1356.09 380.367 1290.2 391.873C1275.03 394.488 1260.91 399.195 1248.36 403.901C1208.09 420.114 1184.03 445.74 1171.48 489.67C1162.59 521.572 1167.29 558.181 1181.42 579.623C1202.33 611.525 1237.37 619.37 1276.6 619.37L1302.22 617.278C1313.21 615.709 1323.14 612.048 1331.51 605.772C1334.65 603.68 1336.74 601.588 1339.36 600.019C1337.79 604.203 1327.85 613.094 1324.71 616.755C1292.81 648.657 1245.74 649.703 1205.47 631.398C1191.35 624.6 1179.32 615.709 1168.34 605.249L1166.25 603.68C1142.71 579.1 1131.73 552.951 1131.73 515.296C1131.21 497.515 1136.44 479.211 1142.71 462.998C1148.47 448.355 1156.84 434.234 1165.73 423.252C1180.37 405.47 1198.67 391.873 1219.07 381.413L1241.04 371.477C1255.68 365.724 1273.98 361.54 1291.76 358.925C1300.66 357.356 1311.11 357.356 1320.53 356.31C1323.67 356.31 1324.71 356.833 1327.33 356.833C1329.94 357.356 1332.56 356.833 1335.17 357.356C1340.4 357.356 1345.11 358.402 1349.82 358.925C1389.56 363.109 1441.34 375.137 1470.1 396.58L1504.62 425.344C1509.32 430.05 1516.12 438.418 1520.83 441.556L1520.31 434.234C1519.78 431.619 1520.83 434.234 1520.83 430.05C1516.12 430.573 1518.22 432.665 1514.03 428.481L1503.57 418.022C1500.96 415.93 1499.39 415.407 1497.3 412.269C1504.62 410.7 1512.46 409.131 1520.83 409.131V406.516C1511.94 406.516 1495.73 410.7 1493.11 409.131L1474.81 393.442C1482.65 392.919 1490.5 390.827 1498.34 389.258L1517.17 387.166C1520.83 387.166 1520.83 387.689 1520.83 384.028C1508.28 385.074 1494.16 387.166 1482.13 389.781C1469.06 392.396 1472.72 392.919 1459.64 382.982C1457.03 381.413 1454.41 380.367 1452.84 378.275C1462.78 378.275 1478.47 374.091 1487.36 371.477C1493.11 369.908 1497.82 368.862 1503.57 367.293C1509.32 365.724 1515.08 365.201 1520.83 363.632V361.017C1507.76 361.54 1475.33 372.522 1457.55 375.66C1445.52 377.229 1439.25 369.908 1429.83 365.201C1428.79 364.678 1427.74 364.155 1426.69 363.632L1424.6 362.063C1441.86 362.063 1493.64 340.098 1520.83 340.098V337.483C1495.73 337.483 1453.89 354.218 1428.26 358.925C1417.8 361.017 1421.46 360.494 1413.62 356.833C1408.91 354.741 1403.68 352.649 1399.5 351.603C1401.59 348.465 1409.96 346.896 1413.62 345.327C1437.68 334.868 1497.82 308.196 1520.83 307.673V305.058C1509.85 305.058 1491.02 311.857 1480.04 315.517C1466.96 319.701 1455.98 324.931 1443.43 329.638C1428.26 336.437 1414.14 343.236 1398.45 347.942C1392.18 350.034 1384.86 345.85 1378.58 343.758C1377.01 343.758 1375.44 343.236 1373.35 342.713C1369.17 341.667 1371.26 342.713 1368.64 341.144C1381.72 338.006 1394.79 329.638 1405.77 322.316C1411.53 318.655 1417.28 315.517 1422.51 311.334C1445.52 296.167 1470.1 281.524 1497.3 274.202C1502.53 272.633 1514.55 269.495 1520.83 269.495V266.88C1490.5 266.88 1448.14 291.983 1422.51 308.719L1406.82 318.655C1395.84 325.977 1373.87 339.575 1361.32 339.575C1351.38 339.052 1342.49 335.391 1332.03 335.391C1335.17 332.776 1340.4 331.207 1344.06 329.638C1355.57 323.885 1366.55 316.563 1377.01 308.719C1417.8 277.863 1451.27 247.53 1505.14 238.639C1509.85 238.116 1516.12 237.07 1520.83 236.024V231.317C1519.26 232.363 1511.94 232.886 1509.32 233.409C1504.09 233.932 1500.96 236.024 1497.82 232.886C1463.83 200.985 1419.37 182.68 1376.49 211.444C1370.73 215.628 1365.5 221.381 1360.27 225.042C1360.8 222.427 1364.46 218.243 1366.03 216.151C1369.69 211.444 1376.49 203.599 1380.67 200.462C1395.84 188.433 1409.44 179.542 1433.49 176.927C1466.96 173.267 1489.97 184.772 1512.99 203.076C1515.6 205.168 1518.74 208.306 1520.83 210.398C1520.83 202.031 1520.31 202.554 1515.6 198.893C1504.62 190.525 1497.3 184.249 1483.18 179.019C1455.46 169.083 1426.69 168.56 1397.93 182.68C1389.56 186.864 1384.33 191.571 1377.53 197.324C1364.46 207.783 1358.18 218.766 1351.38 231.84C1349.82 234.455 1348.77 234.978 1348.25 237.593C1339.88 233.409 1323.14 228.703 1312.16 227.657C1299.61 226.088 1295.43 226.611 1284.97 227.134C1270.32 227.657 1253.06 232.886 1239.47 238.116C1234.76 239.685 1230.58 242.3 1225.87 243.346C1221.16 240.208 1209.66 225.042 1194.49 214.059C1191.87 211.967 1190.31 210.398 1187.17 208.829C1159.45 191.048 1124.41 183.203 1090.94 183.203H1091.46L1100.35 180.065C1104.01 178.496 1106.63 177.45 1110.29 175.881C1134.87 163.853 1139.58 158.623 1160.5 143.98C1170.96 136.658 1181.94 128.813 1197.1 126.198C1204.95 125.152 1213.32 127.244 1217.5 132.474C1219.59 135.612 1220.12 139.796 1217.5 142.934C1213.84 146.594 1211.75 145.026 1207.56 147.117C1208.09 152.347 1209.66 150.255 1213.84 153.916C1215.93 156.531 1218.02 158.623 1220.64 160.715C1235.81 172.744 1262.48 181.634 1282.35 171.175C1294.38 165.422 1302.75 154.962 1307.45 141.888C1313.21 127.767 1314.25 111.555 1310.07 94.8193C1306.93 82.2678 1297.52 69.1932 1288.63 61.8715C1282.87 57.6876 1278.69 55.0727 1271.37 52.4578C1266.14 50.3659 1255.68 47.228 1249.4 47.228C1231.1 46.182 1219.07 47.228 1201.81 52.4578C1187.17 56.1187 1175.66 62.3945 1164.16 69.1932C1108.2 102.664 1104.54 159.669 1058.51 181.111C1056.95 182.157 1055.9 182.157 1054.33 183.203C1050.15 185.295 1052.24 184.772 1050.67 185.818C1048.58 187.387 1042.83 187.91 1039.69 188.956C1033.41 190.525 1033.93 190.002 1027.66 188.956C989.481 181.111 941.367 188.956 904.235 200.985C895.344 204.122 905.281 202.554 894.298 205.168C892.206 205.691 890.638 206.214 889.069 207.26C886.454 207.783 887.5 208.306 884.885 208.306L878.086 208.829L880.701 210.398C877.04 213.536 872.856 211.967 868.149 214.582C862.92 217.197 863.965 219.289 857.69 221.381L861.351 214.059C858.736 215.105 858.213 215.105 857.167 217.72C856.121 218.766 855.075 221.381 854.552 222.95L853.506 225.042C851.937 223.996 851.937 226.088 851.937 222.95C842.523 226.088 852.983 229.749 829.449 229.749C831.018 231.84 833.633 232.886 837.816 232.886C835.724 235.501 831.541 237.07 828.403 238.639C827.88 241.777 825.788 241.777 823.173 243.346C820.558 245.438 818.989 245.961 816.897 248.053C813.236 250.145 808.529 253.806 804.346 255.898C791.271 249.622 781.857 243.869 765.645 239.162C720.669 226.611 679.353 250.145 660.003 248.576C655.819 248.053 654.773 244.915 651.635 242.823L637.514 230.272C634.9 231.84 635.423 231.317 633.331 232.886C634.9 234.978 640.129 238.639 642.221 240.731L660.003 256.421C673.077 268.972 687.721 285.708 699.226 299.828C710.209 313.949 717.008 323.362 732.174 333.299C752.57 346.896 759.892 346.373 778.197 352.649C767.737 354.218 741.588 348.988 732.174 345.85C699.226 335.391 669.416 309.765 644.836 286.231C642.221 284.139 641.175 281.524 638.56 279.432C619.733 261.65 601.429 246.484 577.372 233.409C554.36 221.381 527.688 210.398 497.878 206.737C437.736 199.416 368.179 223.996 330.001 251.191C313.266 263.742 313.789 264.265 301.237 275.771C296.531 280.478 292.347 285.185 287.64 289.368L268.813 310.288C257.83 322.316 235.865 347.942 224.359 357.879C226.451 354.741 228.543 353.172 230.635 350.034L248.939 325.454C256.784 314.472 264.106 302.443 271.95 291.46C312.22 234.455 372.886 191.048 444.534 179.542C471.206 175.358 487.419 178.496 497.355 176.927C496.309 175.358 496.832 175.881 496.832 172.744H479.574C479.574 164.899 485.327 143.457 486.896 134.043C493.695 93.7734 491.603 54.5497 462.316 24.7398C406.357 -30.6962 308.036 12.1883 307.513 102.141C307.513 108.94 308.559 117.308 310.128 122.537C312.22 132.474 315.881 138.75 321.111 146.594C325.817 153.916 331.57 159.669 337.846 165.422C357.196 181.634 387.529 181.111 407.403 166.468C426.753 151.824 430.937 122.014 423.092 103.187C421.523 100.049 422.569 101.618 419.431 100.049C416.293 102.664 419.954 104.756 408.449 104.756C403.219 104.756 396.943 104.233 394.328 101.618C388.052 94.8193 397.466 84.8827 404.265 80.6988C411.586 75.992 422.046 75.469 431.46 78.6069C461.27 87.4976 478.005 140.842 474.867 169.606C474.344 175.358 467.545 172.221 461.27 173.267C437.736 176.404 413.678 180.588 392.759 188.956C378.116 195.232 361.38 203.599 348.306 211.967C338.369 218.766 328.432 225.042 319.542 233.409C313.266 238.116 307.513 238.639 299.145 237.593C290.255 236.024 287.64 236.547 276.657 233.932C249.985 227.134 233.773 208.306 229.589 179.542C226.974 159.669 236.388 144.503 255.215 139.273C279.272 132.997 291.824 147.117 287.117 170.129C286.594 172.744 285.548 175.358 288.163 175.881C291.824 176.927 291.301 173.79 292.347 171.175C298.622 146.594 306.467 133.52 282.41 109.986C248.939 77.038 193.503 94.8193 167.354 127.244C156.894 139.796 146.958 157.577 146.958 175.358L127.085 172.744C109.826 170.129 76.8783 173.267 61.1888 176.404C44.9764 179.542 31.3789 183.726 18.3044 191.571L4.18385 201.508C0.522982 203.599 0 203.599 0 209.352C3.66087 208.829 2.61491 208.306 5.22982 206.214C16.2124 196.801 29.287 190.002 43.4075 185.295C57.005 181.111 72.1715 179.019 86.8149 177.45L110.349 175.881L134.406 177.973C158.463 181.634 181.998 190.002 199.779 206.214C207.101 213.536 213.376 218.766 219.652 228.18C235.342 252.237 241.094 281.001 230.112 308.196C224.359 323.362 212.33 336.96 198.21 344.281C194.026 346.373 190.888 347.419 186.181 348.988C176.768 352.126 166.308 352.649 155.848 351.08L144.343 348.465C142.774 347.419 143.82 347.942 142.774 347.419C145.912 347.419 146.435 348.465 149.05 347.942C173.107 345.85 190.888 340.098 201.348 316.563C211.808 293.029 207.101 264.265 193.503 243.869C179.906 223.473 155.848 205.168 131.268 199.939C94.6597 192.617 54.9131 207.26 27.195 229.226C25.6261 230.795 25.1031 231.317 23.5342 232.886L4.70683 253.283C2.09193 256.944 0 258.513 0 263.742H1.56894C4.18385 253.806 21.4422 237.593 29.287 231.317C40.2696 221.904 52.8211 215.105 67.4646 209.352C89.9528 200.462 120.286 197.324 143.82 206.737C151.665 209.875 157.417 213.536 163.693 217.72C184.089 231.317 209.193 259.558 203.963 296.167C200.302 322.839 186.704 339.575 161.601 344.281C157.417 344.804 137.544 346.896 133.883 342.713C149.05 342.713 163.693 335.914 171.015 323.362C178.86 310.288 178.86 291.46 171.015 278.909C147.481 239.685 89.4298 238.639 50.7292 264.265C14.1205 288.322 10.9826 345.327 32.9478 380.89C34.5168 383.505 34.5168 382.982 35.0398 386.12C25.1031 386.12 16.2124 392.396 6.79876 392.919C5.7528 389.781 2.61491 380.89 0 378.798C0 386.643 3.66087 387.689 4.18385 394.488C2.09193 394.488 2.09193 395.011 0 395.534V400.24C3.66087 399.718 7.84472 397.626 11.5056 397.103C31.9019 391.35 52.2982 387.166 73.2174 384.028C82.1081 382.982 93.0907 382.982 101.458 382.459C106.688 381.936 124.47 383.505 129.699 384.028C139.636 384.551 145.912 387.166 155.848 388.212C162.124 388.735 173.63 392.396 179.383 394.488C207.624 403.901 233.25 418.545 255.215 437.895L273.519 457.245C279.795 465.09 292.87 478.688 296.008 487.055C297.576 490.716 298.099 494.9 299.145 498.561C302.283 508.498 312.22 529.94 312.743 530.986C305.944 530.986 299.668 532.555 293.916 532.555C292.347 527.325 286.594 521.049 283.456 516.865C275.611 506.929 267.767 496.992 258.876 488.101C234.819 464.044 213.376 446.786 180.952 432.665C137.021 414.361 90.9988 410.7 43.9304 417.499C35.0398 418.545 9.41367 423.252 1.04596 427.959Z" fill="#252122" fill-opacity="0.2"/>
</svg>
