<svg width="563" height="407" viewBox="0 0 563 407" fill="none" xmlns="http://www.w3.org/2000/svg">
<path d="M520.715 320.954C528.698 323.165 533.377 331.43 531.166 339.414C528.954 347.397 520.689 352.076 512.705 349.865C504.722 347.653 500.043 339.388 502.254 331.404C504.466 323.421 512.731 318.742 520.715 320.954Z" stroke="black" stroke-width="0.9"/>
<path d="M532.685 340.534C540.668 342.745 545.347 351.01 543.136 358.994C540.924 366.977 532.659 371.656 524.675 369.445C516.692 367.233 512.013 358.968 514.224 350.984C516.436 343.001 524.701 338.322 532.685 340.534Z" stroke="black" stroke-width="0.9"/>
<path d="M523.472 360.631C527.464 361.737 529.804 365.87 528.698 369.861C527.592 373.853 523.459 376.193 519.468 375.087C515.476 373.981 513.136 369.849 514.242 365.857C515.348 361.865 519.481 359.525 523.472 360.631Z" stroke="black" stroke-width="0.45"/>
<path d="M538.312 364.741C542.304 365.847 544.644 369.98 543.538 373.971C542.432 377.963 538.299 380.303 534.308 379.197C530.316 378.091 527.976 373.959 529.082 369.967C530.188 365.975 534.321 363.635 538.312 364.741Z" stroke="black" stroke-width="0.45"/>
<path d="M529.822 375.011C533.814 376.117 536.154 380.25 535.048 384.242C533.942 388.233 529.809 390.573 525.818 389.467C521.826 388.361 519.486 384.229 520.592 380.237C521.698 376.245 525.831 373.905 529.822 375.011Z" stroke="black" stroke-width="0.45"/>
<path d="M514.015 373.504C521.998 375.715 526.677 383.98 524.465 391.964C522.254 399.947 513.989 404.626 506.005 402.415C498.022 400.203 493.343 391.938 495.554 383.954C497.766 375.971 506.031 371.292 514.015 373.504Z" stroke="black" stroke-width="0.9"/>
<path d="M547.945 317.844C555.928 320.055 560.607 328.32 558.396 336.304C556.184 344.287 547.919 348.966 539.935 346.755C531.952 344.543 527.273 336.278 529.484 328.294C531.696 320.311 539.961 315.632 547.945 317.844Z" stroke="black" stroke-width="0.9"/>
<path d="M42.6753 49.9736C34.6917 52.1853 30.0127 60.4502 32.2245 68.4338C34.4362 76.4174 42.7011 81.0964 50.6847 78.8846C58.6683 76.6729 63.3473 68.4079 61.1355 60.4244C58.9238 52.4408 50.6588 47.7618 42.6753 49.9736Z" stroke="black" stroke-width="0.9"/>
<path d="M30.7153 69.5435C22.7317 71.7552 18.0527 80.0202 20.2645 88.0038C22.4762 95.9873 30.7412 100.666 38.7248 98.4546C46.7083 96.2428 51.3873 87.9779 49.1756 79.9943C46.9638 72.0107 38.6989 67.3317 30.7153 69.5435Z" stroke="black" stroke-width="0.9"/>
<path d="M39.9276 89.6413C35.9359 90.7472 33.5964 94.8797 34.7022 98.8714C35.8081 102.863 39.9406 105.203 43.9324 104.097C47.9242 102.991 50.2637 98.8585 49.1578 94.8667C48.0519 90.8749 43.9194 88.5354 39.9276 89.6413Z" stroke="black" stroke-width="0.45"/>
<path d="M25.0877 93.7513C21.0959 94.8572 18.7564 98.9896 19.8623 102.981C20.9682 106.973 25.1006 109.313 29.0924 108.207C33.0842 107.101 35.4237 102.968 34.3178 98.9767C33.2119 94.9849 29.0795 92.6454 25.0877 93.7513Z" stroke="black" stroke-width="0.45"/>
<path d="M33.5677 104.021C29.5759 105.127 27.2364 109.26 28.3423 113.251C29.4481 117.243 33.5806 119.583 37.5724 118.477C41.5642 117.371 43.9037 113.238 42.7978 109.247C41.6919 105.255 37.5594 102.915 33.5677 104.021Z" stroke="black" stroke-width="0.45"/>
<path d="M49.3852 102.513C41.4016 104.725 36.7227 112.99 38.9344 120.974C41.1462 128.957 49.4111 133.636 57.3947 131.425C65.3782 129.213 70.0572 120.948 67.8455 112.964C65.6337 104.981 57.3688 100.302 49.3852 102.513Z" stroke="black" stroke-width="0.9"/>
<path d="M15.4553 46.8534C7.47172 49.0652 2.79273 57.3301 5.00449 65.3137C7.21624 73.2973 15.4812 77.9762 23.4647 75.7645C31.4483 73.5527 36.1273 65.2878 33.9155 57.3042C31.7038 49.3207 23.4389 44.6417 15.4553 46.8534Z" stroke="black" stroke-width="0.9"/>
<path d="M42 50.999C55.8071 50.999 67 39.8061 67 25.999C67 12.1919 55.8071 0.999023 42 0.999023C28.1929 0.999023 17 12.1919 17 25.999C17 39.8061 28.1929 50.999 42 50.999Z" stroke="black" stroke-width="0.9"/>
</svg>
